<svg xmlns="http://www.w3.org/2000/svg"><path d="M195 175.69c2.76-.46 5.47-.9 8.18-1.38.69-.12 1.07.01 1.4.69 3.93 8.03 7.13 16.3 8.67 25.16 1.15 6.59.66 13.14-.62 19.64a77.966 77.966 0 01-6.43 19.13c-.21.43-.44.84-.72 1.38-4.95-1.07-9.88-2.07-14.77-3.2-11.1-2.56-22.19-5.21-32.73-9.59-5.7-2.37-11.15-5.34-16.74-8-.54-.26-1.28-.35-1.86-.22-4.91 1.1-9.89 1.32-14.89 1.35-3.03.02-6.08.08-8.97-1.14-.23-.1-.63.01-.88.15-14.64 8.05-30.55 12.28-46.75 15.61-4.54.93-9.11 1.71-13.63 2.69-1.3.28-1.78-.1-2.24-1.25-2.93-7.34-5.16-14.89-6.14-22.74-.51-4.06-.73-8.21-.47-12.28.42-6.71 2.25-13.16 4.86-19.35 1.13-2.67 2.37-5.28 3.62-8.06 3.29.62 6.61 1.24 10.12 1.9.4-1.98.85-3.94 1.18-5.93.4-2.43.74-4.87 1.02-7.32.41-3.68 1.01-7.37 1.06-11.05.07-5.7-.11-11.41-.46-17.1-.2-3.16-.92-6.29-1.46-9.43-1.59-9.23-4.49-18.08-7.8-26.81-.28-.74-.72-1.12-1.5-1.34-6.3-1.84-12.43-4.1-17.92-7.79-1.09-.73-2.13-1.56-3.15-2.39-4.35-3.56-6.09-8.27-5.96-13.76.07-2.87 1.47-3.88 4.24-3.09 6.21 1.79 12.59 2.03 18.99 2.16 1.2.02 1.62-.69 1.78-1.78.96-6.74 2.54-13.32 4.71-19.78 5.04-15.06 15.45-24.62 30.17-29.9 8.48-3.04 17.24-4.67 26.21-5.32 9.14-.67 18.3-.65 27.42.07 13.36 1.05 25.95 4.69 37.36 11.97 9.6 6.13 15.5 14.85 18.08 25.82 1.29 5.51 2.2 11.12 3.18 16.7.38 2.18.68 2.6 2.95 2.72 5.94.33 11.69-.69 17.35-2.39.61-.18 1.22-.39 1.85-.5 1.92-.34 3.21.42 3.44 2.37.22 1.84.09 3.73.04 5.59-.15 5.16-2.91 8.81-6.9 11.72-4.84 3.53-10.34 5.66-16 7.42-1.33.41-2.71.69-4.02 1.17-.6.22-1.24.7-1.55 1.24-2.43 4.3-3.99 8.96-5.02 13.76-1.02 4.79-1.92 9.61-2.54 14.46-.37 2.91-.11 5.9-.16 8.86-.16 9.33.48 18.6 1.98 27.81.59 3.61 1.44 7.18 2.17 10.77.05.21.16.38.25.58zm-68.28 19.37v-90.12c-9.04-.29-17.97-.57-26.73-.85.71 3.9 1.58 7.8 2.11 11.73.53 3.97.74 7.99 1.09 12.09-.6-.03-.91-.03-1.22-.06l-7.14-.81c-2.41-.28-1.84-.11-2.24-2.12-1.4-6.92-2.83-13.85-4.22-20.77-.18-.9-.65-1.23-1.54-1.32-8.15-.81-16.22-2.09-24.21-3.87-.29-.06-.59-.08-1.07-.15 4.63 12.63 8.06 25.37 9.17 38.64 1.11 13.32-.44 26.44-3.2 39.35 7.29 1.94 14.37 3.82 21.5 5.72.07-.26.16-.52.21-.78.69-3.89 1.42-7.78 2.04-11.68.16-1.04.56-1.32 1.55-1.24 1.99.17 3.99.22 5.98.34 1.15.07 2.29.16 3.49.25 0 .46.03.81 0 1.16-.53 5.16-1.05 10.33-1.64 15.49-.1.89.09 1.32.93 1.75 3.98 2.04 7.97 4.07 11.83 6.33 1.73 1.01 3.33 1.55 5.36 1.31 2.61-.34 5.25-.29 7.95-.39zm67.14-95.29c-.5.05-.81.05-1.11.11-11.37 2.3-22.89 3.5-34.45 4.13-7.93.43-15.88.53-23.82.76-1 .03-2 .03-3 0-.78-.03-1.07.31-1.05 1.07.03 1.28.01 2.56.01 3.84v39.2c0 1.64.01 1.64 1.68 1.64h34.17c1.76 0 1.74.01 1.79 1.81.05 2 .13 3.99.23 5.99.26 5.35.77 10.68 2.13 15.88.21.79.07 1.15-.76 1.35-4.46 1.1-8.91 2.24-13.36 3.4-.78.2-1.24.01-1.48-.74-.86-2.61-1.98-5.18-2.5-7.85-.65-3.4-.84-6.89-1.15-10.34-.09-1.04-.5-1.33-1.5-1.32-5.95.04-11.91.04-17.86 0-1.01-.01-1.41.26-1.4 1.35.03 11.27.03 22.54 0 33.8 0 .98.33 1.27 1.3 1.35 2.94.25 5.88.57 8.8.99.87.12 1.5.03 2.17-.54 6.22-5.29 13.25-9.19 20.91-11.94 8.21-2.95 16.68-4.99 25.22-6.76.8-.17 1.59-.38 2.41-.58-.09-.5-.13-.81-.2-1.12-2.76-11.84-3.91-23.87-4.2-36-.04-1.83-.01-1.84-1.86-1.84h-32.25c-1.62 0-1.67-.04-1.62-1.69.05-1.6.03-3.21.24-4.78.58-4.23 1.27-8.44 1.92-12.65.11-.69.44-1.15 1.21-1.26 4.66-.67 9.33-1.37 13.99-2.08.72-.11 1.08.07.97.87-.12.83-.2 1.66-.29 2.5-.37 3.53-.72 7.06-1.1 10.59-.12 1.14.31 1.53 1.48 1.52 5.31-.05 10.63-.05 15.94 0 1.15.01 1.48-.4 1.57-1.51.81-9.6 2.66-18.98 6.39-27.92.15-.35.25-.71.43-1.23z"/><path d="M126.72 195.06c-2.7.11-5.35.06-7.95.37-2.03.24-3.63-.29-5.36-1.31-3.86-2.26-7.85-4.29-11.83-6.33-.83-.43-1.03-.85-.93-1.75.59-5.16 1.11-10.32 1.64-15.49.04-.35 0-.7 0-1.16-1.2-.09-2.35-.18-3.49-.25-1.99-.12-3.99-.17-5.98-.34-1-.08-1.39.2-1.55 1.24-.62 3.9-1.35 7.79-2.04 11.68-.05.27-.14.53-.21.78-7.14-1.9-14.22-3.78-21.5-5.72 2.76-12.91 4.3-26.03 3.2-39.35-1.1-13.27-4.53-26-9.17-38.64.48.07.78.08 1.07.15 7.99 1.79 16.07 3.07 24.21 3.87.89.09 1.36.43 1.54 1.32 1.39 6.93 2.81 13.85 4.22 20.77.41 2.01-.16 1.84 2.24 2.12 2.38.28 4.76.55 7.14.81.31.03.62.03 1.22.06-.36-4.1-.56-8.12-1.09-12.09-.53-3.94-1.39-7.83-2.11-11.73 8.76.28 17.68.56 26.73.85v90.14z" fill="#999"/><path d="M193.86 99.77c-.18.51-.29.88-.43 1.23-3.74 8.94-5.58 18.32-6.39 27.92-.09 1.11-.42 1.52-1.57 1.51-5.31-.05-10.63-.05-15.94 0-1.16.01-1.6-.39-1.48-1.52.38-3.53.73-7.06 1.1-10.59.09-.83.18-1.67.29-2.5.11-.8-.25-.98-.97-.87-4.66.7-9.32 1.4-13.99 2.08-.78.11-1.11.57-1.21 1.26-.65 4.22-1.34 8.43-1.92 12.65-.22 1.58-.2 3.19-.24 4.78-.05 1.66 0 1.69 1.62 1.69h32.25c1.85 0 1.82 0 1.86 1.84.29 12.13 1.44 24.16 4.2 36 .07.31.11.62.2 1.12-.83.2-1.62.41-2.41.58-8.54 1.77-17 3.81-25.22 6.76-7.66 2.75-14.69 6.66-20.91 11.94-.68.58-1.3.67-2.17.54-2.92-.42-5.86-.74-8.8-.99-.97-.08-1.3-.37-1.3-1.35.03-11.27.03-22.54 0-33.8 0-1.08.39-1.35 1.4-1.35 5.95.04 11.91.04 17.86 0 1-.01 1.4.28 1.5 1.32.31 3.46.5 6.95 1.15 10.34.51 2.68 1.64 5.24 2.5 7.85.24.74.7.94 1.48.74 4.44-1.16 8.9-2.3 13.36-3.4.83-.21.97-.56.76-1.35-1.36-5.2-1.86-10.53-2.13-15.88-.1-1.99-.18-3.99-.23-5.99-.05-1.8-.03-1.81-1.79-1.81h-34.17c-1.67 0-1.68-.01-1.68-1.64v-39.2c0-1.28.03-2.56-.01-3.84-.02-.76.27-1.1 1.05-1.07 1 .03 2 .03 3 0 7.94-.24 15.89-.33 23.82-.76 11.57-.63 23.08-1.83 34.45-4.13.3-.06.61-.06 1.11-.11z" fill="#5a5a5a"/></svg>