<?xml version="1.0" encoding="utf-8"?>
<!-- Generator: Adobe Illustrator 24.0.1, SVG Export Plug-In . SVG Version: 6.00 Build 0)  -->
<svg version="1.1" id="Layer_1" xmlns="http://www.w3.org/2000/svg" xmlns:xlink="http://www.w3.org/1999/xlink" x="0px" y="0px"
	 viewBox="0 0 5.7 10.1" style="enable-background:new 0 0 5.7 10.1;" xml:space="preserve">
<style type="text/css">
	.st0{fill:#7EFFFD;}
</style>
<path class="st0" d="M5.7,9.8c0,0.2-0.1,0.3-0.3,0.3H0.2C0.1,10.1,0,10,0,9.8V9.5c0-0.2,0.1-0.3,0.3-0.3h2l1.3-8.3h-2
	c-0.2,0-0.3-0.1-0.2-0.3l0.1-0.3C1.6,0.1,1.6,0,1.8,0h2.7c0.2,0,0.3,0.1,0.2,0.3l-1.4,9h2.1c0.2,0,0.3,0.1,0.2,0.3
	C5.6,9.6,5.7,9.8,5.7,9.8z"/>
</svg>
