<?xml version="1.0" encoding="utf-8"?>
<!-- Generator: Adobe Illustrator 24.0.1, SVG Export Plug-In . SVG Version: 6.00 Build 0)  -->
<svg version="1.1" id="Layer_1" xmlns="http://www.w3.org/2000/svg" xmlns:xlink="http://www.w3.org/1999/xlink" x="0px" y="0px"
	 viewBox="0 0 7.9 10.1" style="enable-background:new 0 0 7.9 10.1;" xml:space="preserve">
<style type="text/css">
	.st0{fill:#7EFFFD;}
</style>
<path class="st0" d="M6.5,9.8c0,0.2-0.1,0.3-0.3,0.3h-6C0.1,10.1,0,10,0,9.8l0.1-0.5c0-0.2,0.1-0.3,0.3-0.5l5.5-4.3
	C6.5,4,6.6,3.4,6.7,3l0.2-1.5c0.1-0.4,0-0.6-0.5-0.6H3c-0.6,0-0.7,0.2-0.7,0.6L2.1,2.7C2.1,2.9,2,3,1.8,3H1.4C1.2,3,1.1,2.9,1.1,2.7
	l0.2-1.3C1.5,0.2,2.1,0,3.1,0h3.5c1.1,0,1.5,0.2,1.3,1.5L7.7,2.7C7.5,4,7.4,4.5,6.4,5.2l-5.2,4h5c0.2,0,0.3,0.1,0.2,0.3L6.5,9.8z"/>
</svg>
