<?xml version="1.0" encoding="utf-8"?>
<!-- Generator: Adobe Illustrator 24.0.1, SVG Export Plug-In . SVG Version: 6.00 Build 0)  -->
<svg version="1.1" id="Layer_1" xmlns="http://www.w3.org/2000/svg" xmlns:xlink="http://www.w3.org/1999/xlink" x="0px" y="0px"
	 viewBox="0 0 8.2 10.1" style="enable-background:new 0 0 8.2 10.1;" xml:space="preserve">
<style type="text/css">
	.st0{fill:#7EFFFD;}
</style>
<path class="st0" d="M5.1,10.1H1.3c-1.1,0-1.5-0.2-1.3-1.5l1.1-7.1C1.3,0.2,1.8,0,2.9,0h3.9c1.1,0,1.5,0.2,1.3,1.5L6.9,8.6
	C6.7,9.9,6.2,10.1,5.1,10.1z M5.9,8.6L7,1.5c0.1-0.4,0-0.6-0.5-0.6H2.8c-0.6,0-0.7,0.2-0.7,0.6L0.9,8.6C0.8,9,0.9,9.2,1.4,9.2h3.8
	C5.8,9.2,5.9,9,5.9,8.6z"/>
</svg>
