<?xml version="1.0" encoding="utf-8"?>
<!-- Generator: Adobe Illustrator 24.0.1, SVG Export Plug-In . SVG Version: 6.00 Build 0)  -->
<svg version="1.1" id="Layer_1" xmlns="http://www.w3.org/2000/svg" xmlns:xlink="http://www.w3.org/1999/xlink" x="0px" y="0px"
	 viewBox="0 0 7.4 7.7" style="enable-background:new 0 0 7.4 7.7;" xml:space="preserve">
<style type="text/css">
	.st0{fill:#7EFFFD;}
</style>
<path class="st0" d="M4.8,7.7H1.4C0.3,7.7-0.2,7.5,0,6.2l0.3-1.8C0.5,3.2,1,2.9,2.1,2.9h4l0.2-1.4c0.1-0.4,0-0.6-0.5-0.6H1.3
	C1.1,0.9,1,0.8,1.1,0.6V0.3C1.2,0.1,1.3,0,1.5,0H6c1,0,1.5,0.2,1.3,1.5L6.5,6.2C6.3,7.5,5.8,7.7,4.8,7.7z M5.6,6.2L6,3.8H2
	C1.5,3.8,1.3,4,1.3,4.4L1,6.2C0.9,6.6,1,6.8,1.5,6.8h3.3C5.4,6.8,5.5,6.6,5.6,6.2z"/>
</svg>
