<?xml version="1.0" encoding="utf-8"?>
<!-- Generator: Adobe Illustrator 24.0.1, SVG Export Plug-In . SVG Version: 6.00 Build 0)  -->
<svg version="1.1" id="Layer_1" xmlns="http://www.w3.org/2000/svg" xmlns:xlink="http://www.w3.org/1999/xlink" x="0px" y="0px"
	 viewBox="0 0 8.3 10.1" style="enable-background:new 0 0 8.3 10.1;" xml:space="preserve">
<style type="text/css">
	.st0{fill:#7EFFFD;}
</style>
<path class="st0" d="M7,9.8c0,0.2-0.1,0.3-0.3,0.3H6.3C6.1,10.1,6,10,6,9.8l0.6-3.6H1.5L1,9.8c0,0.2-0.1,0.3-0.3,0.3H0.2
	C0.1,10.1,0,10,0,9.8l1.3-8.3C1.5,0.2,2.1,0,3.1,0H7c1.1,0,1.5,0.2,1.3,1.5L7,9.8z M6.7,5.4l0.6-3.9c0.1-0.4,0-0.6-0.5-0.6H3
	c-0.6,0-0.7,0.2-0.7,0.6L1.7,5.4H6.7z"/>
</svg>
