<?xml version="1.0" encoding="utf-8"?>
<!-- Generator: Adobe Illustrator 24.0.1, SVG Export Plug-In . SVG Version: 6.00 Build 0)  -->
<svg version="1.1" id="Layer_1" xmlns="http://www.w3.org/2000/svg" xmlns:xlink="http://www.w3.org/1999/xlink" x="0px" y="0px"
	 viewBox="0 0 7.4 7.7" style="enable-background:new 0 0 7.4 7.7;" xml:space="preserve">
<style type="text/css">
	.st0{fill:#7EFFFD;}
</style>
<path class="st0" d="M6,7.4c0,0.2-0.1,0.3-0.3,0.3H1.4C0.3,7.7-0.2,7.5,0,6.2l0.8-4.7C1,0.2,1.5,0,2.6,0H6c1,0,1.5,0.2,1.3,1.5
	L7,3.2C6.8,4.5,6.3,4.7,5.2,4.7h-4L1,6.2C0.9,6.8,1.1,6.8,2.3,6.8h3.6c0.2,0,0.3,0.1,0.2,0.3C6.1,7.1,6,7.4,6,7.4z M6.1,3.2l0.3-1.7
	c0.1-0.4,0-0.6-0.5-0.6H2.5c-0.6,0-0.7,0.2-0.7,0.6L1.4,3.9h4C5.9,3.9,6,3.6,6.1,3.2z"/>
</svg>
