<?xml version="1.0" encoding="utf-8"?>
<!-- Generator: Adobe Illustrator 24.0.1, SVG Export Plug-In . SVG Version: 6.00 Build 0)  -->
<svg version="1.1" id="Layer_1" xmlns="http://www.w3.org/2000/svg" xmlns:xlink="http://www.w3.org/1999/xlink" x="0px" y="0px"
	 viewBox="0 0 3 10.1" style="enable-background:new 0 0 3 10.1;" xml:space="preserve">
<style type="text/css">
	.st0{fill:#7EFFFD;}
</style>
<path class="st0" d="M1.5,9.8c0,0.2-0.1,0.3-0.3,0.3H0.8c-0.2,0-0.3-0.1-0.2-0.3l1-6.5H0.2C0,3.3,0,3.2,0,3V2.7
	c0-0.2,0.1-0.3,0.3-0.3h2c0.2,0,0.3,0.1,0.2,0.3L1.5,9.8z M2.9,0.6c0,0.2-0.1,0.3-0.3,0.3H2.2C2,0.9,2,0.8,2,0.6l0.1-0.3
	C2.1,0.1,2.2,0,2.4,0h0.4C2.9,0,3,0.1,3,0.3L2.9,0.6z"/>
</svg>
