<?xml version="1.0" encoding="utf-8"?>
<!-- Generator: Adobe Illustrator 24.0.1, SVG Export Plug-In . SVG Version: 6.00 Build 0)  -->
<svg version="1.1" id="Layer_1" xmlns="http://www.w3.org/2000/svg" xmlns:xlink="http://www.w3.org/1999/xlink" x="0px" y="0px"
	 viewBox="0 0 1.7 5.5" style="enable-background:new 0 0 1.7 5.5;" xml:space="preserve">
<style type="text/css">
	.st0{fill:#7EFFFD;}
</style>
<path class="st0" d="M0.9,5.2c0,0.2-0.1,0.3-0.3,0.3H0.2C0.1,5.5,0,5.4,0,5.2l0.1-0.4c0-0.2,0.1-0.3,0.3-0.3h0.4C1,4.5,1,4.6,1,4.8
	L0.9,5.2z M1.7,0.7C1.6,0.9,1.5,1,1.3,1H0.9C0.8,1,0.7,0.9,0.7,0.7l0.1-0.4C0.8,0.1,0.9,0,1.1,0h0.4c0.2,0,0.3,0.1,0.2,0.3V0.7z"/>
</svg>
