<?xml version="1.0" encoding="utf-8"?>
<!-- Generator: Adobe Illustrator 24.0.1, SVG Export Plug-In . SVG Version: 6.00 Build 0)  -->
<svg version="1.1" id="Layer_1" xmlns="http://www.w3.org/2000/svg" xmlns:xlink="http://www.w3.org/1999/xlink" x="0px" y="0px"
	 viewBox="0 0 6.5 7.7" style="enable-background:new 0 0 6.5 7.7;" xml:space="preserve">
<style type="text/css">
	.st0{fill:#7EFFFD;}
</style>
<path class="st0" d="M4.2,7.7h-4C0.1,7.7,0,7.6,0,7.4V7.1c0-0.2,0.1-0.3,0.3-0.3h3.9C4.8,6.8,5,6.6,5,6.2l0.2-1.3
	c0.1-0.4,0-0.6-0.5-0.6h-3c-1,0-1.5-0.3-1.3-1.5l0.2-1.3C0.8,0.2,1.4,0,2.4,0h3.9c0.2,0,0.3,0.1,0.2,0.3v0.3c0,0.2-0.1,0.3-0.3,0.3
	H2.3c-0.6,0-0.7,0.2-0.7,0.6L1.4,2.8c-0.1,0.4,0,0.6,0.5,0.6h3c1.1,0,1.5,0.2,1.3,1.5L6,6.2C5.8,7.5,5.3,7.7,4.2,7.7z"/>
</svg>
