<?xml version="1.0" encoding="utf-8"?>
<!-- Generator: Adobe Illustrator 24.0.1, SVG Export Plug-In . SVG Version: 6.00 Build 0)  -->
<svg version="1.1" id="Layer_1" xmlns="http://www.w3.org/2000/svg" xmlns:xlink="http://www.w3.org/1999/xlink" x="0px" y="0px"
	 viewBox="0 0 4.3 10.6" style="enable-background:new 0 0 4.3 10.6;" xml:space="preserve">
<style type="text/css">
	.st0{fill:#7EFFFD;}
</style>
<path class="st0" d="M3.2,10.3c0,0.2-0.1,0.3-0.3,0.3H1.7c-1.1,0-1.5-0.2-1.3-1.5l0.9-5.3h-1C0,3.8,0,3.7,0,3.5V3.2
	C0,3,0.1,2.9,0.3,2.9h1l0.4-2.6C1.8,0.1,1.9,0,2.1,0h0.4c0.2,0,0.3,0.1,0.2,0.3L2.3,2.9h1.8c0.2,0,0.3,0.1,0.2,0.3v0.3
	c0,0.2-0.1,0.3-0.3,0.3H2.2L1.3,9.1c-0.1,0.4,0,0.6,0.5,0.6H3c0.2,0,0.3,0.1,0.2,0.3C3.2,10,3.2,10.3,3.2,10.3z"/>
</svg>
