<svg xmlns="http://www.w3.org/2000/svg" viewbox="0 0 130.9 14"><path fill="none" d="M-116-42.8h376.8v202.9H-116z"/><path d="M6.5 10.9c0 .2-.1.3-.3.3h-6c-.2 0-.3-.1-.2-.3l.1-.5c0-.2.1-.3.3-.5l5.5-4.3c.6-.5.8-1.1.8-1.6l.2-1.5c.1-.3 0-.5-.5-.5H3c-.5 0-.7.2-.7.6l-.2 1.2c0 .2-.1.3-.3.3h-.4c-.2 0-.3-.1-.3-.3l.2-1.3C1.5 1.3 2 1 3.1 1h3.5c1.1 0 1.5.2 1.3 1.5l-.2 1.3c-.2 1.3-.3 1.7-1.3 2.5l-5.2 4h5c.2 0 .3.1.2.3l.1.3zm6.9 0c0 .2-.1.3-.3.3H8c-.2 0-.3-.1-.2-.3v-.3c0-.2.1-.3.3-.3h2L11.5 2h-2c-.2 0-.3-.1-.3-.3l.1-.3c0-.2.1-.3.3-.3h2.7c.2 0 .3.1.2.3l-1.4 9h2.1c.2 0 .3.1.2.3v.2zm6.6.3h-3.9c-1.1 0-1.5-.2-1.3-1.5L16 2.6c.2-1.2.7-1.5 1.8-1.5h3.9c1.1 0 1.5.2 1.3 1.5l-1.1 7.1c-.3 1.3-.8 1.5-1.9 1.5zm.9-1.5L22 2.6c.1-.4 0-.6-.6-.6h-3.8c-.5 0-.6.2-.6.6l-1.1 7.1c-.1.4 0 .6.5.6h3.8c.5 0 .6-.2.7-.6zm7.9 1.2c0 .2-.1.3-.3.3h-5.1c-.2 0-.3-.1-.2-.3v-.3c0-.2.1-.3.3-.3h2L26.9 2h-2c-.2 0-.3-.1-.2-.3l.1-.3c0-.2.1-.3.3-.3h2.7c.2 0 .3.1.2.3l-1.4 9h2.1c.2 0 .3.1.2.3l-.1.2zm2.1 0c0 .2-.1.3-.3.3h-.4c-.2 0-.3-.1-.2-.3l.1-.4c0-.2.1-.3.3-.3h.4c.2 0 .3.1.2.3l-.1.4zm.7-4.5c0 .2-.1.3-.3.3h-.4c-.2 0-.3-.1-.2-.3V6c0-.2.1-.3.3-.3h.4c.2 0 .3.1.2.3v.4zm10.8 4.5c0 .2-.1.3-.3.3h-.4c-.2 0-.3-.1-.2-.3l.5-3.6h-5l-.6 3.6c0 .2-.1.3-.3.3h-.4c-.2 0-.3-.1-.2-.3l1.3-8.3c.2-1.2.7-1.5 1.8-1.5h3.9c1.1 0 1.5.2 1.3 1.5l-1.4 8.3zm-.2-4.4l.6-3.9c.1-.4 0-.6-.5-.6h-3.8c-.6 0-.7.2-.7.6l-.6 3.9h5zm5.1 4.4c-.1.2-.2.3-.4.3h-.5c-.2 0-.3-.1-.3-.3l-1.3-7.2c0-.2.1-.3.2-.3h.4c.2 0 .3.1.3.3l1.1 6.3 3.1-6.3c.1-.2.2-.3.4-.3h.4c.2 0 .2.1.2.3l-3.6 7.2zm8.3.3h-3.4c-1.1 0-1.5-.2-1.3-1.5l.3-1.8c.2-1.2.7-1.5 1.8-1.5h4l.2-1.4c.1-.4 0-.6-.5-.6h-4.5c-.2 0-.3-.1-.2-.3v-.3c0-.2.1-.3.3-.3h4.5c1.1 0 1.5.2 1.3 1.5l-.8 4.7c-.2 1.3-.7 1.5-1.7 1.5zm.8-1.5l.4-2.4h-4c-.6 0-.7.2-.7.6l-.3 1.8c-.1.4 0 .6.5.6h3.3c.6 0 .7-.2.8-.6zm3.4 1.2c0 .2-.1.3-.3.3H59c-.2 0-.3-.1-.2-.3l.9-5.9c.2-1.2.7-1.5 1.8-1.5h2.9c.2 0 .3.1.2.3v.3c0 .2-.1.3-.3.3h-2.8c-.6 0-.7.2-.7.6l-1 5.9zm9.6.3H66c-1.1 0-1.5-.2-1.3-1.5l.9-5.9c0-.2.1-.3.3-.3h.4c.2 0 .3.1.2.3l-.9 5.9c-.1.4 0 .6.5.6h3.3c.6 0 .7-.2.7-.6l.9-5.9c0-.2.1-.3.3-.3h.4c.2 0 .3.1.2.3L71 9.7c0 1.3-.5 1.5-1.6 1.5zm8.2 0h-3.4c-1.1 0-1.5-.2-1.3-1.5l.9-5.9c0-.2.1-.3.3-.3h.4c.2 0 .3.1.2.3l-.9 5.9c-.1.4 0 .6.5.6h3.3c.6 0 .7-.2.7-.6l.9-5.9c0-.2.1-.3.3-.3h.5c.2 0 .3.1.2.3l-.9 5.9c-.2 1.3-.7 1.5-1.7 1.5zm7.5 0h-4c-.2 0-.3-.1-.2-.3v-.3c0-.2.1-.3.3-.3h3.9c.6 0 .7-.2.7-.6l.2-1.3c.1-.4 0-.6-.5-.6h-3c-1.1 0-1.5-.2-1.3-1.5l.3-1.3c.2-1.2.7-1.5 1.8-1.5h3.9c.2 0 .3.1.2.3v.3c0 .2-.1.3-.3.3h-3.9c-.6 0-.7.2-.7.6l-.2 1.3c-.1.4 0 .6.5.6h3c1.1 0 1.5.2 1.3 1.5l-.2 1.3c-.2 1.3-.8 1.5-1.8 1.5zm3.9-.3c0 .2-.1.3-.3.3h-.4c-.2 0-.3-.1-.2-.3L89 5c.2-1.2.7-1.5 1.8-1.5h2.9c.2 0 .3.1.2.3v.3c0 .2-.1.3-.3.3h-2.8c-.6 0-.8.2-.8.6l-1 5.9zm6.6 0c0 .2-.1.3-.3.3h-.4c-.2 0-.3-.1-.2-.3l1-6.5h-1.3c-.2 0-.3-.1-.2-.3v-.3c0-.2.1-.3.3-.3h2c.2 0 .3.1.2.3l-1.1 7.1zm1.5-9.2c0 .2-.1.3-.3.3h-.4c-.2 0-.3-.1-.2-.3l.1-.3c0-.2.1-.3.3-.3h.4c.2 0 .3.1.2.3l-.1.3zm4.5 9.5h-4c-.2 0-.3-.1-.2-.3v-.3c0-.2.1-.3.3-.3h3.9c.6 0 .7-.2.7-.6l.2-1.3c.1-.4 0-.6-.5-.6h-3c-1.1 0-1.5-.2-1.3-1.5L98 5c.2-1.2.7-1.5 1.8-1.5h3.9c.2 0 .3.1.2.3v.3c0 .2-.1.3-.3.3h-3.9c-.6 0-.7.2-.7.6l-.2 1.3c-.1.4 0 .6.5.6h3c1.1 0 1.5.2 1.3 1.5l-.2 1.3c-.2 1.3-.8 1.5-1.8 1.5zm6.7-.3c0 .2-.1.3-.3.3h-1.2c-1.1 0-1.5-.2-1.3-1.5l.9-5.3h-1c-.2 0-.3-.1-.2-.3v-.3c0-.2.1-.3.3-.3h1l.4-2.6c0-.2.1-.3.3-.3h.4c.2 0 .3.1.2.3l-.4 2.6h1.8c.2 0 .3.1.2.3v.3c0 .2-.1.3-.3.3h-1.8l-.9 5.3c-.1.4 0 .6.5.6h1.2c.2 0 .3.1.2.3v.3zm7.1 0c0 .2-.1.3-.3.3h-4.4c-1.1 0-1.5-.2-1.3-1.5l.8-4.7c.2-1.2.7-1.5 1.8-1.5h3.4c1.1 0 1.5.2 1.3 1.5l-.3 1.8c-.2 1.2-.7 1.5-1.8 1.5h-4l-.2 1.5c-.1.6.1.6 1.3.6h3.6c.2 0 .3.1.2.3l-.1.2zm.1-4.2l.3-1.7c.1-.4 0-.6-.5-.6H112c-.6 0-.7.2-.7.6l-.4 2.3h4c.4.1.5-.2.6-.6zm3.6 4.2c0 .2-.1.3-.3.3h-.4c-.2 0-.3-.1-.2-.3l1-6.5h-1.3c-.2 0-.3-.1-.2-.3v-.3c0-.2.1-.3.3-.3h2c.2 0 .3.1.2.3l-1.1 7.1zm1.4-9.2c0 .2-.1.3-.3.3h-.4c-.2 0-.3-.1-.2-.3l.1-.3c0-.2.1-.3.3-.3h.4c.2 0 .3.1.2.3l-.1.3zm3.3 9.2c0 .2-.1.3-.3.3h-1.2c-1.1 0-1.5-.2-1.3-1.5l1.5-9.4c0-.2.1-.3.3-.3h.4c.2 0 .3.1.2.3l-1.5 9.4c-.1.4 0 .6.5.6h1.2c.2 0 .3.1.2.3v.3zm2 2.8c-.1.2-.2.3-.4.3h-.3c-.2 0-.2-.1-.2-.3l1.3-2.5-1.5-7.4c0-.2.1-.3.2-.3h.4c.2 0 .3.1.3.3l1.2 6.1 3.1-6.1c.1-.2.2-.3.4-.3h.4c.2 0 .2.1.2.3l-5.1 9.9z" fill="#7efffd"/></svg>