<svg xmlns="http://www.w3.org/2000/svg" viewbox="0 0 116.3 11.2"><path fill="none" d="M-123.4-43.1h376.8v202.9h-376.8z"/><path d="M6.3 10.9c0 .2-.1.3-.3.3H.2c-.2 0-.3-.1-.2-.3l1.5-9.6c0-.2.1-.3.3-.3h5.7c.2 0 .3.1.2.3l.1.4c-.1.2-.2.3-.4.3h-5l-.6 3.7H6c.2 0 .3.1.2.3l-.1.3c0 .2-.1.3-.3.3H1.6L1 10.3h5.1c.2 0 .3.1.2.3v.3zm7.8 0c0 .2-.1.3-.3.3h-.4c-.2 0-.3-.1-.2-.3l.9-5.9c.1-.4 0-.6-.5-.6h-3.3c-.6 0-.8.2-.8.6l-.9 5.9c0 .2-.1.3-.3.3h-.5c-.2 0-.3-.1-.2-.3L8.5 5c.2-1.2.7-1.5 1.8-1.5h3.4c1.1 0 1.5.2 1.3 1.5l-.9 5.9zm5.9.3h-4c-.2 0-.3-.1-.2-.3v-.3c0-.2.1-.3.3-.3H20c.6 0 .7-.2.7-.6l.2-1.3c.1-.4 0-.6-.5-.6h-3c-1.1 0-1.5-.2-1.3-1.5l.3-1.3c.2-1.2.7-1.5 1.8-1.5h3.9c.2 0 .3.1.2.3v.3c0 .2-.1.3-.3.3h-3.9c-.6 0-.7.2-.7.6l-.2 1.3c-.1.4 0 .6.5.6h3c1.1 0 1.5.2 1.3 1.5l-.2 1.3c-.2 1.3-.7 1.5-1.8 1.5zm4.9-.3c0 .2-.1.3-.3.3h-.4c-.2 0-.3-.1-.2-.3l1-6.5h-1.3c-.2 0-.3-.1-.2-.3v-.3c0-.2.1-.3.3-.3h2c.2 0 .2.1.2.3l-1.1 7.1zm1.4-9.2c0 .2-.1.3-.3.3h-.4c-.2 0-.3-.1-.2-.3l.1-.3c0-.2.1-.3.3-.3h.4c.2 0 .3.1.2.3l-.1.3zm4.4 6c0 .2-.1.3-.3.3h-3.2c-.2 0-.3-.1-.2-.3v-.4c0-.2.1-.3.3-.3h3.2c.2 0 .3.1.2.3v.4zm2.6 3.2c0 .2-.1.3-.3.3h-.4c-.2 0-.3-.1-.2-.3l1-6.5h-1.3c-.2 0-.3-.1-.2-.3v-.3c0-.2.1-.3.3-.3h2c.2 0 .3.1.2.3l-1.1 7.1zm1.5-9.2c0 .2-.1.3-.3.3h-.4c-.2 0-.3-.1-.2-.3l.1-.3c0-.2.1-.3.3-.3h.4c.2 0 .3.1.2.3l-.1.3zm3.2 9.2c0 .2-.1.3-.3.3h-1.2c-1.1 0-1.5-.2-1.3-1.5L36.7.3c0-.2.1-.3.3-.3h.4c.2 0 .3.1.2.3l-1.5 9.4c-.1.4 0 .6.5.6h1.2c.2 0 .3.1.2.3v.3zm4.3 0c0 .2-.1.3-.3.3h-1.2c-1.1 0-1.5-.2-1.3-1.5l.9-5.3h-1c-.2 0-.3-.1-.2-.3v-.3c0-.2.1-.3.3-.3h1l.4-2.6c0-.2.1-.3.3-.3h.4c.2 0 .3.1.2.3l-.4 2.6h1.8c.2 0 .3.1.2.3v.3c0 .2-.1.3-.3.3h-1.8l-.9 5.3c-.1.4 0 .6.5.6h1.2c.2 0 .3.1.2.3v.3zm5.8.3h-3.4c-1.1 0-1.5-.2-1.3-1.5l.3-1.8c.2-1.2.7-1.5 1.8-1.5h4l.2-1.4c.1-.4 0-.6-.5-.6h-4.5c-.2 0-.3-.1-.2-.3v-.3c0-.2.1-.3.3-.3h4.5c1.1 0 1.5.2 1.3 1.5l-.8 4.7c-.2 1.3-.7 1.5-1.7 1.5zm.8-1.5l.4-2.4h-4c-.6 0-.7.2-.7.6l-.3 1.8c-.1.4 0 .6.5.6h3.3c.6 0 .7-.2.8-.6zm11.5 1.2c0 .2-.1.3-.3.3h-5.9c-.2 0-.3-.1-.2-.3l.1-.5c0-.2.1-.3.3-.5l5.5-4.3c.6-.5.8-1.1.8-1.6l.2-1.5c.1-.4 0-.6-.5-.6H57c-.6 0-.7.2-.7.6L56 3.8c0 .2-.1.3-.3.3h-.4c-.2 0-.3-.1-.2-.3l.2-1.3c.1-1.2.7-1.4 1.7-1.4h3.5c1.1 0 1.5.2 1.3 1.5l-.2 1.2c-.2 1.2-.3 1.7-1.3 2.5l-5.2 4h5c.2 0 .3.1.2.3l.1.3zm6.6.3h-3.5c-1.1 0-1.5-.2-1.3-1.5l.2-1.3c0-.2.1-.3.3-.3h.4c.2 0 .3.1.2.3l-.2 1.2c-.1.4 0 .6.5.6H67c.6 0 .7-.2.7-.6l.5-3.3c.1-.4 0-.6-.5-.6H63c-.2 0-.3-.1-.2-.3l.7-4.1c0-.2.1-.3.3-.3h5.6c.2 0 .3.1.2.3l-.1.3c0 .2-.1.3-.3.3h-4.9l-.5 2.9H68c1.1 0 1.5.2 1.3 1.5l-.5 3.4c-.2 1.3-.7 1.5-1.8 1.5zm3.8-.3c0 .2-.1.3-.3.3h-.4c-.2 0-.3-.1-.2-.3l.1-.4c0-.2.1-.3.3-.3h.4c.2 0 .3.1.2.3l-.1.4zm6.7.3h-3.8c-1.1 0-1.5-.2-1.3-1.5l.2-1.3c0-.2.1-.3.3-.3h.4c.2 0 .3.1.2.3l-.2 1.2c-.1.4 0 .6.5.6h3.7c.6 0 .7-.2.7-.6l.4-2.4c.1-.4 0-.6-.5-.6H76c-.2 0-.3-.1-.2-.3l.1-.3c0-.2.1-.3.3-.3h2.1c.6 0 .7-.2.7-.6l.4-2.5c.1-.4 0-.6-.5-.6h-3.7c-.6 0-.7.2-.7.6l-.2 1.2c0 .2-.1.3-.3.3h-.4c-.2 0-.3-.1-.2-.3l.2-1.3c.2-1.2.7-1.5 1.8-1.5h3.8c1.1 0 1.5.2 1.3 1.5L80 5c-.1.6-.3 1-.8 1.2.4.2.5.6.4 1.2l-.4 2.3c-.1 1.3-.6 1.5-1.7 1.5zm4.1-.3c0 .2-.1.3-.3.3h-.4c-.2 0-.3-.1-.2-.3l.1-.4c0-.2.1-.3.3-.3h.4c.2 0 .3.1.2.3l-.1.4zm7.7 0c0 .2-.1.3-.3.3h-5.9c-.2 0-.3-.1-.2-.3l.1-.5c0-.2.1-.3.3-.5l5.5-4.3c.6-.5.8-1.1.8-1.6l.2-1.5c.1-.4 0-.6-.5-.6h-3.4c-.6 0-.7.2-.7.6L85 3.8c0 .2-.1.3-.3.3h-.4c-.2 0-.3-.1-.3-.3l.2-1.3c.2-1.2.7-1.5 1.8-1.5h3.5c1.1 0 1.5.2 1.3 1.5l-.2 1.2c-.2 1.2-.3 1.7-1.3 2.5l-5.2 4h5c.2 0 .3.1.2.3v.4zm7.2.3h-3.9c-1.1 0-1.5-.2-1.3-1.5l1.1-7.1c.2-1.2.7-1.5 1.8-1.5h3.9c1.1 0 1.5.2 1.3 1.5l-1.1 7.1c-.3 1.3-.8 1.5-1.8 1.5zm.8-1.5l1.1-7.1c.1-.4 0-.6-.5-.6h-3.8c-.6 0-.7.2-.7.6l-1.1 7.1c-.1.4 0 .6.5.6h3.8c.5 0 .6-.2.7-.6zm8.9 1.2c0 .2-.1.3-.3.3H100c-.2 0-.3-.1-.2-.3l.1-.5c0-.2.1-.3.3-.5l5.5-4.3c.6-.5.8-1.1.8-1.6l.2-1.5c.1-.4 0-.6-.5-.6h-3.4c-.6 0-.7.2-.7.6l-.2 1.2c0 .2-.1.3-.3.3h-.4c-.2 0-.3-.1-.2-.3l.2-1.3c.2-1.2.7-1.5 1.8-1.5h3.5c1.1 0 1.5.2 1.3 1.5l-.2 1.2c-.2 1.2-.3 1.7-1.3 2.5l-5.2 4h5c.2 0 .3.1.2.3l-.1.5zm7.1.3h-3.9c-1.1 0-1.5-.2-1.3-1.5l1.1-7.1c.2-1.2.7-1.5 1.8-1.5h3.9c1.1 0 1.5.2 1.3 1.5l-1.1 7.1c-.2 1.3-.7 1.5-1.8 1.5zm.8-1.5l1.1-7.1c.1-.4 0-.6-.5-.6H111c-.6 0-.7.2-.7.6l-1.1 7.1c-.1.4 0 .6.5.6h3.8c.5 0 .6-.2.6-.6z" fill="#7efffd"/></svg>