<svg xmlns="http://www.w3.org/2000/svg" viewbox="0 0 133 12.3"><path fill="none" d="M-114.6-37.5h376.8v177.6h-376.8z"/><path d="M7.4 9.6c0 .2-.1.2-.3.2h-.4c-.2 0-.3-.1-.2-.2l.7-3.8H1.6L1 9.6c0 .2-.1.2-.3.2H.2c-.1 0-.2-.1-.2-.2l1.5-8.4c.1-.2.1-.2.3-.2h.4c.2 0 .3 0 .3.2L1.8 5h5.5L8 1.2c0-.2.1-.2.3-.2h.4c.2 0 .2 0 .2.2L7.4 9.6zm3.4 2.4c-.1.2-.2.2-.4.2h-.3c-.2 0-.2-.1-.2-.2l1.3-2.2-1.5-6.5c0-.1.1-.2.2-.2h.4c.2 0 .3.1.3.2l1.2 5.3 3.1-5.3c.1-.2.2-.2.4-.2h.4c.2 0 .2.1.2.2L10.8 12zm9.9-2.2h-3.4c-1.1 0-1.5-.2-1.3-1.3L17.5.2c0-.2.1-.2.3-.2h.4c.2 0 .3.1.2.2L18 3.1h4c1.1 0 1.5.2 1.3 1.3l-.8 4.1c-.2 1.1-.7 1.3-1.8 1.3zm.9-1.3l.8-4.1c.1-.4 0-.6-.5-.6h-4L17 8.5c-.1.3 0 .5.5.5h3.3c.6 0 .7-.2.8-.5zm3.3 1.1c0 .2-.1.2-.3.2h-.4c-.2 0-.3-.1-.2-.2l.9-5.2c.2-1.1.7-1.3 1.8-1.3h2.9c.2 0 .3.1.2.2v.3c0 .2-.1.2-.3.2h-2.8c-.6 0-.7.2-.7.6l-1.1 5.2zm6.6 0c0 .2-.1.2-.3.2h-.4c-.2 0-.3-.1-.2-.2l1-5.7h-1.3c-.2 0-.3-.1-.2-.2v-.3c0-.2.1-.2.3-.2h2c.2 0 .3.1.2.2l-1.1 6.2zM33 1.5c0 .2-.1.2-.3.2h-.4c-.2 0-.3-.1-.2-.2l.1-.3c-.1-.2 0-.2.2-.2h.4c.2 0 .3 0 .2.2v.3zm5.1 8.3h-3.4c-1.1 0-1.5-.2-1.3-1.3l.8-4.1c.2-1.1.7-1.3 1.8-1.3h4l.5-2.8c0-.2.1-.2.3-.2h.4c.2 0 .3.1.2.2l-1.5 8.3c-.3 1-.8 1.2-1.8 1.2zm.8-1.3l.9-4.7h-4c-.6 0-.7.2-.7.6l-.8 4.1c-.1.4 0 .6.5.6h3.3c.6-.1.7-.3.8-.6zm4.3 1.1c0 .2-.1.2-.3.2h-.4c-.2 0-.3-.1-.2-.2l1-5.7H42c-.2 0-.3-.1-.2-.2v-.3c0-.2.1-.2.3-.2h2c.2 0 .3.1.2.2l-1.1 6.2zm1.4-8.1c0 .2-.1.2-.3.2h-.4c-.2 0-.3-.1-.2-.2l.1-.3c0-.2.1-.2.3-.2h.4c.2 0 .3.1.2.2l-.1.3zm5.6 8.3h-3.9c-1.1 0-1.5-.2-1.3-1.3l.2-1.1c0-.2.1-.2.3-.2h.5c.2 0 .3.1.2.2L46 8.5c-.1.3 0 .5.5.5h3.8c.6 0 .7-.2.7-.6l.4-2.2c.1-.4 0-.6-.5-.6h-3.8c-1.1 0-1.5-.2-1.3-1.3l.4-2.2c.2-.9.7-1.1 1.7-1.1h3.9c1.1 0 1.5.2 1.3 1.3l-.2 1.1c0 .2-.1.2-.3.2h-.4c-.2 0-.2-.1-.2-.3l.2-1.1c.1-.4 0-.6-.5-.6h-3.8c-.6 0-.7.2-.7.6l-.4 2.2c-.1.4 0 .6.5.6h3.9c1.1 0 1.5.2 1.3 1.3L52 8.5c-.2 1.1-.7 1.3-1.8 1.3zm8.2 0h-4L54 12c0 .2-.1.2-.3.2h-.4c-.2 0-.3-.1-.2-.2l1.4-7.6c.2-1.1.7-1.3 1.8-1.3h3.4c1.1 0 1.5.2 1.3 1.3l-.8 4.1c-.2 1.1-.8 1.3-1.8 1.3zm.8-1.3l.8-4.1c0-.4 0-.6-.6-.6h-3.3c-.6 0-.7.2-.7.6L54.5 9h3.9c.6 0 .8-.2.8-.5zm8.6 1.1c0 .2-.1.2-.3.2h-4.4c-1.1 0-1.5-.2-1.3-1.3l.8-4.1c.2-1.1.7-1.3 1.8-1.3h3.4c1.1 0 1.5.2 1.3 1.3l-.3 1.5C68.6 7 68 7.2 67 7.2h-4l-.2 1.3c-.2.5.1.5 1.2.5h3.6c.2 0 .3.1.2.2v.4zm0-3.7l.3-1.5c.1-.4 0-.6-.5-.6h-3.3c-.6 0-.7.2-.7.6l-.4 2h4c.4 0 .6-.2.6-.5zm6.9 3.7c.1.1 0 .2-.2.2H74c-.2 0-.3-.1-.4-.2l-1.4-2.7H71l-.5 2.7c0 .2-.1.2-.3.2h-.4c-.2 0-.3-.1-.2-.2L71.3.3c0-.2.1-.2.3-.2h.4c.2 0 .3.1.2.2l-1.1 5.8h1.2l2.5-2.8c.1-.1.3-.2.5-.2h.5c.2 0 .2.1.1.2l-2.8 3.2 1.6 3.1zm5.5.2h-4c-.2 0-.3-.1-.2-.2v-.3c0-.2.1-.2.3-.2h3.9c.7-.1.8-.3.8-.6l.2-1.1c.1-.4 0-.6-.5-.6h-3c-1.1 0-1.5-.2-1.3-1.3l.2-1.1c.2-1.1.7-1.3 1.8-1.3h3.9c.2 0 .3.1.2.2v.3c0 .2-.1.2-.3.2h-3.9c-.6 0-.7.2-.7.6l-.2 1.1c-.1.3 0 .6.5.6h3c1.1 0 1.5.2 1.3 1.3L82 8.5c-.2 1.1-.7 1.3-1.8 1.3zm4.9-.2c0 .2-.1.2-.3.2h-.4c-.2 0-.3-.1-.2-.2l1-5.7h-1.3c-.2 0-.3-.1-.2-.2v-.3c0-.2.1-.2.3-.2h2c.2 0 .3.1.2.2l-1.1 6.2zm1.4-8.1c0 .2-.1.2-.3.2h-.4c-.2 0-.3-.1-.2-.2l.1-.3c0-.2.1-.2.3-.2h.4c.2 0 .3.1.2.2l-.1.3zm9.2 8.1c0 .2-.1.2-.3.2H91c-1.1 0-1.5-.2-1.3-1.3l.8-4.1c.2-1.1.7-1.3 1.8-1.3h3.4c1.1 0 1.5.2 1.3 1.3l-.3 1.5c-.2 1.1-.7 1.3-1.8 1.3h-4l-.2 1.3c-.1.5.1.5 1.2.5h3.6c.2 0 .3.1.2.2v.4zm0-3.7l.3-1.5c.1-.4 0-.6-.5-.6h-3.3c-.6 0-.7.2-.7.6l-.4 2h4c.4 0 .6-.2.6-.5zm6 3.9h-4c-.2 0-.3-.1-.2-.2v-.3c0-.2.1-.2.3-.2h3.9c.6 0 .7-.2.7-.6l.2-1.1c.1-.4 0-.6-.5-.6h-3c-1.1 0-1.5-.2-1.3-1.3l.2-1.1c.2-1.1.7-1.3 1.8-1.3h3.9c.2 0 .3.1.2.2v.3c0 .2-.1.2-.3.2h-3.9c-.6 0-.7.2-.7.6l-.2 1.1c-.1.3 0 .6.5.6h3c1.1 0 1.5.2 1.3 1.3l-.2 1.2c-.1 1-.6 1.2-1.7 1.2zm4.9-.2c0 .2-.1.2-.3.2h-.4c-.2 0-.3-.1-.2-.2l1-5.7h-1.3c-.2 0-.3-.1-.2-.2v-.3c0-.2.1-.2.3-.2h2c.2 0 .3.1.2.2l-1.1 6.2zm1.4-8.1c0 .2-.1.2-.3.2h-.4c-.2 0-.3-.1-.2-.2l.1-.3c0-.2.1-.2.3-.2h.4c.2 0 .3.1.2.2l-.1.3zm4 8.1c0 .2-.1.2-.3.2h-1.2c-1.1 0-1.5-.2-1.3-1.3l.9-4.7h-1c-.2 0-.3-.1-.2-.2v-.3c0-.2.1-.2.3-.2h1l.4-2.3c0-.2.1-.2.3-.2h.4c.2 0 .3.1.2.2l-.4 2.3h1.8c.2 0 .3.1.2.2v.3c0 .2-.1.2-.3.2H111l-.9 4.7c-.1.4 0 .6.5.6h1.2c.2 0 .3.1.2.2v.3zm4.8 0c0 .2-.1.2-.3.2h-1.2c-1.1 0-1.5-.2-1.3-1.3l.9-4.7h-1c-.2 0-.3-.1-.2-.2v-.3c0-.2.1-.2.3-.2h1l.4-2.3c0-.2.1-.2.3-.2h.4c.2 0 .3.1.2.2l-.4 2.3h1.8c.2 0 .3.1.2.2v.3c0 .2-.1.2-.3.2h-1.8l-.9 4.7c-.1.4 0 .6.5.6h1.2c.2 0 .3.1.2.2v.3zm5.7.2h-3.4c-1.1 0-1.5-.2-1.3-1.3l.3-1.6c.2-1.1.7-1.3 1.8-1.3h4l.2-1.2c.1-.5-.1-.6-1.2-.6h-3.8c-.2 0-.3-.1-.2-.2v-.3c0-.2.1-.2.3-.2h4.5c1.1 0 1.5.2 1.3 1.3l-.8 4.1c-.1 1.1-.7 1.3-1.7 1.3zm.8-1.3l.4-2.1h-4c-.6 0-.7.2-.7.6l-.3 1.6c-.1.4 0 .6.5.6h3.3c.6-.2.8-.4.8-.7zm-1.7-6.3c0 .2-.1.2-.3.2h-.4c-.2 0-.3-.1-.2-.2l.1-.3c0-.2.1-.2.3-.2h.4c.2 0 .3.1.2.2l-.1.3zm2.2 0c0 .2-.1.2-.3.2h-.4c-.2 0-.3-.1-.2-.2l.1-.3c0-.2.1-.2.3-.2h.4c.2 0 .3.1.2.2l-.1.3zm6.7 7.6h-3.4c-1 0-1.5-.2-1.3-1.3l.3-1.6c.2-1.1.7-1.3 1.8-1.3h4l.2-1.2c.1-.5-.1-.6-1.2-.6H127c-.2 0-.3-.1-.2-.2v-.3c0-.2.1-.2.3-.2h4.5c1.1 0 1.5.2 1.3 1.3l-.8 4.1c-.1 1.1-.6 1.3-1.6 1.3zm.8-1.3l.4-2.1h-4c-.6 0-.7.2-.7.6l-.3 1.6c-.1.4 0 .6.5.6h3.3c.6-.2.7-.4.8-.7zm-1.7-6.3c0 .2-.1.2-.3.2h-.4c-.2 0-.3-.1-.2-.2l.1-.3c0-.2.1-.2.3-.2h.4c.2 0 .3.1.2.2l-.1.3zm2.1 0c0 .2-.1.2-.3.2h-.4c-.2 0-.3-.1-.2-.2l.1-.3c0-.2.1-.2.3-.2h.4c.2 0 .3.1.2.2l-.1.3z" fill="#7efffd"/></svg>