<?xml version="1.0" encoding="utf-8"?>
<!-- Generator: Adobe Illustrator 24.0.1, SVG Export Plug-In . SVG Version: 6.00 Build 0)  -->
<svg version="1.1" id="Layer_1" xmlns="http://www.w3.org/2000/svg" xmlns:xlink="http://www.w3.org/1999/xlink" x="0px" y="0px"
	 viewBox="0 0 700 700" style="enable-background:new 0 0 700 700;" xml:space="preserve">
<style type="text/css">
	.st0{fill:#BBBBBB;stroke:#000000;stroke-width:3;stroke-miterlimit:10;}
</style>
<path class="st0" d="M162.6,375.2h28.9v7.2h-36v-64.9h7.2L162.6,375.2L162.6,375.2L162.6,375.2z M205.9,339.2h7.2v36h-7.2V339.2z
	 M213.1,339.2V332h21.6v7.2H213.1z M234.7,375.2v7.2h-21.6v-7.2H234.7z M234.7,339.2h7.2v36h-7.2V339.2z M292.3,339.2v43.2h-7.2V368
	h-21.6v14.4h-7.2v-43.2h7.2v21.6h21.6v-21.6H292.3z M263.5,339.2V332h21.6v7.2H263.5L263.5,339.2L263.5,339.2z M335.6,375.2v7.2
	h-28.8V332h28.8v7.2H314v36H335.6L335.6,375.2z M335.6,339.2h7.2v36h-7.2V339.2z M364.4,339.2h-7.2V332h21.6v7.2h-7.2v36h7.2v7.2
	h-21.6v-7.2h7.2V339.2z M400.5,346.4v36h-7.2V332h7.2v7.2h7.2v7.2H400.5L400.5,346.4L400.5,346.4z M407.7,346.4h7.2v7.2h-7.2V346.4z
	 M422.1,353.5v-21.6h7.2v50.4h-7.2v-21.6h-7.2v-7.2H422.1L422.1,353.5z M450.9,375.2h-7.2v-36h7.2V375.2z M450.9,339.2V332h21.6v7.2
	H450.9z M472.5,375.2v7.2h-21.6v-7.2H472.5z M472.5,375.2V368h-7.2v-7.2h14.4v14.4H472.5L472.5,375.2L472.5,375.2z M472.5,339.2h7.2
	v14.3h-7.2V339.2L472.5,339.2z M501.3,382.5H494v-7.2h7.2V382.5z M523,382.5h-7.2v-7.2h7.2V382.5z M544.5,382.5h-7.2v-7.2h7.2V382.5
	z"/>
</svg>
