<svg xmlns="http://www.w3.org/2000/svg" width="318.9" height="318.9"><path d="M256.955 301.028c-25.164-5.212-45-10.801-57.833-16.294-5.636-2.412-12.387-5.705-16.214-7.909l-2.346-1.351-2.304.482c-4.938 1.035-7.718 1.24-16.703 1.24-8.29-.001-9.142-.05-10.8-.617l-1.8-.615-5.25 2.573c-12.787 6.27-22.06 9.568-38.25 13.608-12.05 3.007-32.68 7.239-34.344 7.045-.652-.077-.912-.48-1.896-2.938-3.859-9.644-6.755-21.158-7.724-30.712-.559-5.504-.234-14.092.721-19.089.984-5.144 2.238-9.597 4.116-14.61 1.661-4.433 5.507-12.783 5.958-12.933.16-.054 2.862.399 6.003 1.006s5.887 1.036 6.102.953c.578-.221 2.383-10.605 3.55-20.423.891-7.494 1.097-20.81.43-27.793-.57-5.971-2.487-17.732-3.632-22.288-1.778-7.076-5.144-17.85-7.376-23.616l-1.266-3.27-5.12-1.698c-11.352-3.763-18.57-7.696-23.882-13.014-4.329-4.333-5.806-7.683-6.194-14.044-.157-2.581-.101-3.121.45-4.368.486-1.097.884-1.528 1.746-1.888 1.06-.443 1.309-.42 4.887.441 6.115 1.473 11.648 2.108 18.904 2.168 3.695.03 4.386-.037 4.692-.456.198-.27.52-1.6.717-2.954 1.249-8.609 3.932-18.805 6.947-26.4 6.373-16.053 16.899-26.342 34.116-33.35 15.048-6.124 31.831-8.563 56.145-8.16 11.436.19 14.49.391 21.45 1.417 13.981 2.06 28.398 7.208 38.4 13.712 6.272 4.079 12.466 9.881 15.591 14.607 5.512 8.334 9.494 20.897 11.554 36.458.493 3.729.734 4.766 1.22 5.25.563.563.969.601 6.07.569 6.032-.038 10.646-.729 16.565-2.48 4.263-1.262 4.977-1.358 6.228-.835 2.242.937 2.785 3.04 2.316 8.975-.384 4.854-1.026 7.21-2.641 9.696-4.496 6.916-14.758 12.565-30.972 17.05l-1.67.463-1.385 2.933c-2.315 4.899-3.125 7.172-4.842 13.582-3.299 12.317-3.634 15.236-3.634 31.65 0 13.813.194 17.404 1.512 27.93.748 5.98 3.23 18.933 3.723 19.425.179.18 2.103-.02 5.194-.538 2.7-.453 5.235-.777 5.632-.72.92.131 1.462 1.095 4.364 7.753 4.084 9.37 7.075 19.345 8.093 26.991 1.627 12.225-1.166 28.126-7.528 42.856-1.728 4-2.481 5.272-3.172 5.352-.23.026-2.308-.343-4.618-.822z" fill="#989898"/><path d="M258.605 300.998c-.742-.16-4.522-.965-8.4-1.79-15.027-3.2-33.913-8.315-43.079-11.667-7.721-2.824-19.251-8.132-24.711-11.377-1.784-1.06-1.536-1.052-6.178-.193-4.005.74-11.247 1.157-17.49 1.007-4.993-.12-6.203-.243-7.934-.802l-2.043-.66-2.178 1.196c-5.393 2.96-15.751 7.4-23.201 9.947-10.223 3.494-26.189 7.41-44.56 10.928-3.919.75-7.324 1.364-7.568 1.364-.589 0-1.103-1.051-2.904-5.942-4.376-11.876-6.861-24.528-6.848-34.856.014-11.393 2.824-22.153 9.418-36.069 1.315-2.776 1.422-2.91 2.204-2.767.452.083 3.185.608 6.072 1.167 4.508.873 5.298.956 5.587.587.825-1.054 3.27-17.054 4.03-26.37.492-6.043.417-17.427-.151-22.8-.98-9.275-3-20.018-5.103-27.15-.56-1.897-1.506-5.117-2.102-7.155-1.182-4.037-4.45-13.02-5.099-14.015-.262-.403-1.23-.859-2.758-1.3-3.459-.997-10.013-3.488-13.523-5.14-8.056-3.788-14.064-8.644-16.71-13.503-1.483-2.726-2.587-8.834-2.138-11.83.116-.773.529-1.74.962-2.255.966-1.148 2.11-1.178 6.244-.162 4.365 1.073 8.488 1.598 15.552 1.982 7.229.392 7.811.288 8.303-1.481.166-.6.303-1.318.304-1.596.008-2.369 2.764-14.473 4.564-20.045 4.416-13.674 9.82-22.459 18.015-29.294 13.887-11.58 34.376-17.854 61.573-18.853 7.69-.283 26.224.32 31.5 1.024 17.472 2.332 33.115 8.137 44.371 16.465 3.975 2.94 10.139 9.132 12.153 12.208 5.303 8.096 9.309 20.799 11.259 35.7.259 1.98.614 4.117.788 4.749.463 1.678 1.471 2.003 6.194 1.995 5.793-.008 11.324-.857 17.785-2.727 4.157-1.203 5.578-1.208 6.638-.022 1.193 1.335 1.488 3.246 1.149 7.438-.41 5.073-.725 6.472-2.003 8.904-1.427 2.716-4.725 6.087-8.218 8.402-5.04 3.34-13.539 6.92-21.716 9.15l-3 .818-1.265 2.396c-3.888 7.368-7.156 19.188-8.654 31.298-.417 3.37-.472 6.111-.345 17.4.153 13.686.392 17.446 1.73 27.2.807 5.88 3.183 17.584 3.66 18.03.286.265 1.51.147 5.174-.502 2.64-.467 5.15-.856 5.58-.864.706-.013.947.341 2.598 3.81 6.123 12.865 9.752 25.62 10.184 35.787.502 11.827-2.867 26.96-8.83 39.663-1.372 2.924-1.373 2.925-2.452 2.893-.594-.018-1.687-.162-2.43-.321zm-101.344-56l5.794-.197.076-56.127.076-56.127-9.676-.188c-5.322-.104-12.751-.346-16.51-.538-3.76-.193-6.899-.287-6.976-.21-.078.078.119.898.437 1.822 1.323 3.847 2.692 12.984 3.33 22.23.29 4.188.28 5.128-.054 5.45-.33.32-1.471.263-6.377-.32-3.652-.435-6.12-.863-6.35-1.102-.206-.214-.867-3.36-1.468-6.99-1.591-9.612-4.202-21.289-4.966-22.21-.162-.194-1.272-.444-2.468-.555-6.117-.567-21.076-2.966-27.149-4.354-1.361-.311-2.475-.452-2.475-.313 0 .14.943 3.06 2.095 6.493 4.768 14.203 7.844 28.25 9.019 41.19.479 5.27.402 17.76-.148 23.963-.558 6.304-1.676 14.166-2.899 20.402-.498 2.539-.795 4.714-.66 4.834.133.12 1.593.517 3.243.882 4.465.987 12.814 3.176 17.874 4.685 2.458.733 4.586 1.333 4.728 1.333.277 0 1.022-3.715 2.316-11.55.436-2.64.97-4.985 1.186-5.212.33-.347 1.415-.356 6.794-.059 4.435.245 6.524.474 6.797.744.43.423.058 5.485-1.157 15.777-.321 2.723-.584 5.288-.585 5.7 0 .67.548 1.027 5.173 3.358 2.846 1.434 7.132 3.756 9.524 5.159 3.093 1.813 4.54 2.504 5.006 2.39.361-.09 3.264-.251 6.45-.36z" fill="#585858"/><path d="M254.105 299.706c-33.468-7.046-52.741-13.409-70.51-23.28l-3.16-1.755-1.64.44c-2.931.785-8.702 1.362-15.44 1.545-6.913.188-10.525-.086-13.058-.99l-1.359-.485-4.491 2.249c-13.971 6.995-26.397 11.23-46.36 15.8-7.711 1.765-25.897 5.421-26.967 5.421-.626 0-4.197-10.235-6.018-17.25-5.61-21.605-4.085-37.763 5.456-57.79l1.872-3.928 1.522.18c.837.098 3.605.596 6.15 1.107 4.132.83 4.663.88 4.966.464.512-.7 2.147-10.168 3.27-18.933 1.767-13.78 1.565-26.978-.608-39.75a342.917 342.917 0 01-1.04-6.428c-.996-6.932-8.684-31.86-10.285-33.347-.192-.179-2.172-.903-4.4-1.61-7.705-2.444-14.305-5.418-19.2-8.65-3.34-2.207-7.664-6.546-8.939-8.97-1.798-3.42-2.899-9.657-2.177-12.336.713-2.647 1.766-2.934 6.387-1.742 4.756 1.226 14.25 2.264 20.837 2.279 3.236.007 3.509-.326 4.291-5.236 2.483-15.581 7.215-28.872 13.62-38.252 2.101-3.078 7.245-8.34 10.686-10.932 13.543-10.202 32.157-15.758 56.845-16.967 8.78-.43 27.476.055 33.6.872 22.509 3.002 41.464 11.512 52.626 23.627 7.584 8.23 12.364 21.017 15.137 40.486.402 2.828.881 5.421 1.063 5.761.491.918 2.141 1.242 6.332 1.244 5.796.002 11.235-.824 17.702-2.69 3.91-1.127 5.453-1.173 6.434-.192.986.986 1.17 2.323.966 7.057-.19 4.454-.694 6.819-1.945 9.15-1.205 2.246-4.912 5.968-8 8.034-4.526 3.028-12.14 6.41-18.765 8.333l-4.278 1.245-2.03.592-1.159 2.311c-2.016 4.018-3.555 8.151-4.992 13.411-1.8 6.589-1.879 6.92-2.543 10.65-1.443 8.105-1.57 10.34-1.413 24.847.148 13.63.365 17.265 1.59 26.603.65 4.956 3.394 18.515 3.841 18.98.295.307 1.384.205 5.6-.524 2.879-.498 5.412-.905 5.63-.905.77-.001 6.25 12.723 8.404 19.513 2.235 7.044 3.571 13.916 3.848 19.786.533 11.292-2.932 26.937-8.735 39.44-1.227 2.642-1.392 2.858-2.17 2.835-.464-.014-3.61-.608-6.993-1.32zm-69.213-55.171c6.26-5.023 16.168-10.58 23.78-13.34 7.818-2.834 18.403-5.761 29.356-8.118 3.12-.672 5.746-1.295 5.836-1.385.09-.09-.076-1.272-.368-2.627-2.618-12.137-4.122-24.213-4.699-37.714-.18-4.207-.382-7.818-.45-8.025-.097-.295-4.803-.375-22.192-.375-19.203 0-22.09-.057-22.24-.444-.286-.748.48-11.78 1.096-15.756.731-4.724 1.606-8.347 2.135-8.845.457-.43 19.035-3.267 19.503-2.978.33.205.193 1.676-.713 7.623-.344 2.263-.63 5.705-.649 7.8l-.032 3.75 11.463.079c10.689.073 11.48.043 11.734-.45.15-.29.361-1.676.47-3.079.747-9.559 3.8-22.985 7.149-31.43.672-1.696 1.15-3.154 1.062-3.241-.087-.088-1.963.184-4.168.603-16.778 3.19-38.128 5.023-64.31 5.52l-10.5.198v56.7l23.072.077c14.61.049 23.202.186 23.428.373.236.197.424 2.135.559 5.773.336 9.074.865 14.116 2.19 20.871.45 2.291.67 4.096.517 4.233-.146.131-4.36 1.278-9.363 2.55-7.043 1.789-9.19 2.233-9.513 1.965-.527-.437-2.605-5.814-3.25-8.406-.7-2.819-1.32-7.3-1.674-12.117-.17-2.3-.42-4.292-.555-4.428-.136-.136-5.91-.212-12.83-.169l-12.581.078v45.3l1.2.07c3.369.197 8.606.773 10.2 1.123.99.218 1.974.41 2.187.427.213.016 1.63-.967 3.15-2.186zm-25.833 1.018c3.056-.001 3.896-.094 4.275-.473.425-.425.471-5.966.471-56.513 0-44.476-.077-56.103-.375-56.339-.22-.174-4.598-.371-10.575-.477-5.61-.099-13.08-.334-16.602-.523-3.942-.21-6.51-.235-6.68-.064-.172.172-.111.756.158 1.52.807 2.286 1.952 7.975 2.55 12.667.78 6.106 1.382 14.965 1.04 15.297-.256.249-11.64-.921-11.947-1.228-.082-.082-.685-3.314-1.34-7.183-.656-3.87-1.475-8.318-1.82-9.886-1.34-6.09-2.768-11.665-3.108-12.13-.274-.375-1.96-.693-7.254-1.37-7.835-1.002-15.842-2.32-21.696-3.57-3.292-.703-4.027-.78-4.159-.437-.192.5-.23.366 1.661 5.807 4.688 13.49 7.725 26.736 9.24 40.31.693 6.2.688 19.43-.01 26.59-.623 6.4-1.714 13.9-2.92 20.066-.495 2.539-.791 4.718-.657 4.843s3.851 1.12 8.26 2.21c4.41 1.09 10.253 2.658 12.987 3.482 2.734.825 5.159 1.5 5.389 1.5.23 0 .489-.237.576-.526.14-.462 2.167-11.833 2.736-15.342l.213-1.316 4.392.2c2.415.11 5.386.283 6.6.386l2.21.186-.194 2.43c-.107 1.338-.548 5.739-.979 9.781-.43 4.043-.797 7.958-.814 8.7l-.032 1.35 6.15 3.173c3.383 1.746 7.635 4.079 9.45 5.185l3.3 2.011 2.85-.158c1.568-.087 4.562-.158 6.654-.16z" fill="#010101"/></svg>