<svg version="1.1" id="Layer_1" xmlns="http://www.w3.org/2000/svg" x="0" y="0" viewBox="0 0 218.8 58.4" xml:space="preserve"><style>.st0{fill:#7efffd}</style><path class="st0" d="M10.9 36.3c0 .3-.2.5-.5.5H.4c-.3 0-.5-.2-.3-.5l.2-.8c0-.3.2-.5.5-.8l9.2-7.2c1-.8 1.3-1.8 1.3-2.7l.3-2.5c.2-.5 0-.8-.8-.8H5.1c-.8 0-1.2.3-1.2 1l-.3 2c0 .3-.2.5-.5.5h-.7c-.3 0-.5-.2-.5-.5l.3-2.2c.3-2 1.2-2.5 3-2.5H11c1.8 0 2.5.3 2.2 2.5l-.3 2.2c-.3 2.2-.5 2.8-2.2 4.2L2 35.4h8.4c.3 0 .5.2.3.5.1-.1.2.4.2.4zm11.6 0c0 .3-.2.5-.5.5h-8.5c-.3 0-.5-.2-.3-.5v-.5c0-.3.2-.5.5-.5H17l2.3-13.9H16c-.3 0-.5-.2-.5-.5l.2-.5c0-.3.2-.5.5-.5h4.5c.3 0 .5.2.3.5l-2.3 15h3.5c.3 0 .5.2.3.5v.4zm11 .5H27c-1.8 0-2.5-.3-2.2-2.5l2-11.9c.3-2 1.2-2.5 3-2.5h6.5c1.8 0 2.5.3 2.2 2.5l-1.8 11.9c-.5 2.1-1.4 2.5-3.2 2.5zm1.5-2.5l1.8-11.9c.2-.7 0-1-1-1h-6.4c-.8 0-1 .3-1 1l-1.8 11.9c-.2.7 0 1 .8 1h6.4c.9 0 1-.4 1.2-1zm13.2 2c0 .3-.2.5-.5.5h-8.5c-.3 0-.5-.2-.3-.5v-.5c0-.3.2-.5.5-.5h3.3L45 21.4h-3.3c-.3 0-.5-.2-.3-.5l.2-.5c0-.3.2-.5.5-.5h4.5c.3 0 .5.2.3.5l-2.3 15H48c.3 0 .5.2.3.5.1 0-.1.4-.1.4zm3.5 0c0 .3-.2.5-.5.5h-.7c-.3 0-.5-.2-.3-.5l.2-.7c0-.3.2-.5.5-.5h.7c.3 0 .5.2.3.5l-.2.7zm1.2-7.5c0 .3-.2.5-.5.5h-.7c-.3 0-.5-.2-.3-.5v-.7c0-.3.2-.5.5-.5h.7c.3 0 .5.2.3.5v.7zm18 7.5c0 .3-.2.5-.5.5h-.7c-.3 0-.5-.2-.3-.5l.8-6h-8.4l-1 6c0 .3-.2.5-.5.5h-.7c-.3 0-.5-.2-.3-.5l2.2-13.9c.3-2 1.2-2.5 3-2.5H71c1.8 0 2.5.3 2.2 2.5.1 0-2.3 13.9-2.3 13.9zm-.3-7.4l1-6.5c.2-.7 0-1-.8-1h-6.4c-1 0-1.2.3-1.2 1l-1 6.5h8.4zm8.5 7.4c-.2.3-.3.5-.7.5h-.8c-.3 0-.5-.2-.5-.5l-2.2-12c0-.3.2-.5.3-.5h.7c.3 0 .5.2.5.5l1.8 10.5 5.2-10.5c.2-.3.3-.5.7-.5h.7c.3 0 .3.2.3.5 0-.1-6 12-6 12zm13.9.5h-5.7c-1.8 0-2.5-.3-2.2-2.5l.5-3c.3-2 1.2-2.5 3-2.5h6.7l.3-2.3c.2-.7 0-1-.8-1h-7.5c-.3 0-.5-.2-.3-.5v-.5c0-.3.2-.5.5-.5H95c1.8 0 2.5.3 2.2 2.5l-1.3 7.9c-.4 2-1.3 2.4-2.9 2.4zm1.3-2.5l.7-4h-6.7c-1 0-1.2.3-1.2 1l-.5 3c-.2.7 0 1 .8 1H93c1 0 1.1-.4 1.3-1zm5.7 2c0 .3-.2.5-.5.5h-.8c-.3 0-.5-.2-.3-.5l1.5-9.9c.3-2 1.2-2.5 3-2.5h4.8c.3 0 .5.2.3.5v.5c0 .3-.2.5-.5.5h-4.7c-1 0-1.2.3-1.2 1 .1 0-1.6 9.9-1.6 9.9zm16 .5h-5.7c-1.8 0-2.5-.3-2.2-2.5l1.5-9.9c0-.3.2-.5.5-.5h.7c.3 0 .5.2.3.5l-1.5 9.9c-.2.7 0 1 .8 1h5.5c1 0 1.2-.3 1.2-1l1.5-9.9c0-.3.2-.5.5-.5h.7c.3 0 .5.2.3.5l-1.5 9.9c.1 2.1-.7 2.5-2.6 2.5zm13.7 0H124c-1.8 0-2.5-.3-2.2-2.5l1.5-9.9c0-.3.2-.5.5-.5h.7c.3 0 .5.2.3.5l-1.5 9.9c-.2.7 0 1 .8 1h5.5c1 0 1.2-.3 1.2-1l1.5-9.9c0-.3.2-.5.5-.5h.8c.3 0 .5.2.3.5l-1.5 9.9c-.2 2.1-1 2.5-2.7 2.5zm12.6 0h-6.7c-.3 0-.5-.2-.3-.5v-.5c0-.3.2-.5.5-.5h6.5c1 0 1.2-.3 1.2-1l.3-2.2c.2-.7 0-1-.8-1h-5c-1.8 0-2.5-.3-2.2-2.5l.5-2.2c.3-2 1.2-2.5 3-2.5h6.5c.3 0 .5.2.3.5v.5c0 .3-.2.5-.5.5h-6.5c-1 0-1.2.3-1.2 1l-.3 2.2c-.2.7 0 1 .8 1h5c1.8 0 2.5.3 2.2 2.5l-.3 2.2c-.4 2.1-1.4 2.5-3 2.5zm6.5-.5c0 .3-.2.5-.5.5h-.7c-.3 0-.5-.2-.3-.5l1.5-9.9c.3-2 1.2-2.5 3-2.5h4.8c.3 0 .5.2.3.5v.5c0 .3-.2.5-.5.5h-4.7c-1 0-1.3.3-1.3 1 .1 0-1.6 9.9-1.6 9.9zm11 0c0 .3-.2.5-.5.5h-.7c-.3 0-.5-.2-.3-.5l1.7-10.9h-2.2c-.3 0-.5-.2-.3-.5v-.5c0-.3.2-.5.5-.5h3.3c.3 0 .5.2.3.5l-1.8 11.9zm2.5-15.4c0 .3-.2.5-.5.5h-.7c-.3 0-.5-.2-.3-.5l.2-.5c0-.3.2-.5.5-.5h.7c.3 0 .5.2.3.5l-.2.5zm7.5 15.9h-6.7c-.3 0-.5-.2-.3-.5v-.5c0-.3.2-.5.5-.5h6.5c1 0 1.2-.3 1.2-1l.3-2.2c.2-.7 0-1-.8-1h-5c-1.8 0-2.5-.3-2.2-2.5l.5-2.2c.3-2 1.2-2.5 3-2.5h6.5c.3 0 .5.2.3.5v.5c0 .3-.2.5-.5.5h-6.5c-1 0-1.2.3-1.2 1l-.3 2.2c-.2.7 0 1 .8 1h5c1.8 0 2.5.3 2.2 2.5l-.3 2.2c-.3 2.1-1.3 2.5-3 2.5zm11.2-.5c0 .3-.2.5-.5.5h-2c-1.8 0-2.5-.3-2.2-2.5l1.5-8.9h-1.7c-.3 0-.5-.2-.3-.5v-.5c0-.3.2-.5.5-.5h1.7l.7-4.3c0-.3.2-.5.5-.5h.7c.3 0 .5.2.3.5l-.7 4.3h3c.3 0 .5.2.3.5v.5c0 .3-.2.5-.5.5h-3l-1.5 8.9c-.2.7 0 1 .8 1h2c.3 0 .5.2.3.5.1 0 .1.5.1.5zm11.9 0c0 .3-.2.5-.5.5H185c-1.8 0-2.5-.3-2.2-2.5l1.3-7.9c.3-2 1.2-2.5 3-2.5h5.7c1.8 0 2.5.3 2.2 2.5l-.5 3c-.3 2-1.2 2.5-3 2.5h-6.7l-.3 2.5c-.2 1 .2 1 2.2 1h6c.3 0 .5.2.3.5.1 0-.1.4-.1.4zm.2-7l.5-2.8c.2-.7 0-1-.8-1h-5.5c-1 0-1.2.3-1.2 1l-.7 3.8h6.7c.6.1.8-.4 1-1zm6 7c0 .3-.2.5-.5.5h-.7c-.3 0-.5-.2-.3-.5l1.7-10.9h-2.2c-.3 0-.5-.2-.3-.5v-.5c0-.3.2-.5.5-.5h3.3c.3 0 .5.2.3.5l-1.8 11.9zm2.3-15.4c0 .3-.2.5-.5.5h-.7c-.3 0-.5-.2-.3-.5l.2-.5c0-.3.2-.5.5-.5h.7c.3 0 .5.2.3.5l-.2.5zm5.5 15.4c0 .3-.2.5-.5.5h-2c-1.8 0-2.5-.3-2.2-2.5l2.5-15.7c0-.3.2-.5.5-.5h.7c.3 0 .5.2.3.5l-2.5 15.7c-.2.7 0 1 .8 1h2c.3 0 .5.2.3.5.1 0 .1.5.1.5zm3.4 4.6c-.2.3-.3.5-.7.5h-.5c-.3 0-.3-.2-.3-.5l2.2-4.2-2.5-12.4c0-.3.2-.5.3-.5h.7c.3 0 .5.2.5.5l2 10.2 5.2-10.2c.2-.3.3-.5.7-.5h.7c.3 0 .3.2.3.5l-8.6 16.6zM41.9 11c0 .2-.1.2-.3.2h-.5c-.2 0-.3-.1-.2-.2l.8-4.3h-6.4l-.7 4.3c0 .2-.1.2-.3.2h-.6c-.1 0-.2-.1-.2-.2l1.7-9.6c.1-.2.1-.2.3-.2h.5c.2 0 .3 0 .3.2l-.8 4.3h6.3l.8-4.3c0-.2.1-.2.3-.2h.5c.2 0 .2 0 .2.2L41.9 11zm3.9 2.7c-.1.2-.2.2-.5.2H45c-.2 0-.2-.1-.2-.2l1.5-2.5-1.7-7.4c0-.1.1-.2.2-.2h.5c.2 0 .3.1.3.2L47 9.9l3.5-6.1c.1-.2.2-.2.5-.2h.5c.2 0 .2.1.2.2l-5.9 9.9zm11.3-2.5h-3.9c-1.3 0-1.7-.2-1.5-1.5L53.4.2c0-.2.1-.2.4-.2h.5c.2 0 .3.1.2.2L54 3.5h4.6c1.3 0 1.7.2 1.5 1.5l-.9 4.7c-.3 1.3-.9 1.5-2.1 1.5zm1-1.5L59 5c.1-.5 0-.7-.6-.7h-4.6l-1 5.4c-.1.3 0 .6.6.6h3.8c.7 0 .8-.2.9-.6zm3.8 1.3c0 .2-.1.2-.3.2h-.5c-.2 0-.3-.1-.2-.2l1-5.9c.2-1.3.8-1.5 2.1-1.5h3.3c.2 0 .3.1.2.2v.3c0 .2-.1.2-.3.2H64c-.7 0-.8.2-.8.7l-1.3 6zm7.5 0c0 .2-.1.2-.3.2h-.5c-.2 0-.3-.1-.2-.2l1.1-6.5H68c-.2 0-.3-.1-.2-.2v-.4c0-.2.1-.2.3-.2h2.3c.2 0 .3.1.2.2.1 0-1.2 7.1-1.2 7.1zm1.7-9.3c0 .2-.1.2-.3.2h-.5c-.2 0-.3-.1-.2-.2l.1-.3c-.1-.2 0-.2.2-.2h.5c.2 0 .3 0 .2.2v.3zm5.9 9.5h-3.9c-1.3 0-1.7-.2-1.5-1.5l.9-4.7c.2-1.3.8-1.5 2.1-1.5h4.6l.6-3.2c0-.2.1-.2.3-.2h.5c.2 0 .3.1.2.2L79 9.8c-.3 1.2-.9 1.4-2 1.4zm.9-1.5l1-5.4h-4.6c-.7 0-.8.2-.8.7l-.9 4.7c-.1.5 0 .7.6.7H77c.7-.1.8-.3.9-.7zm4.9 1.3c0 .2-.1.2-.3.2H82c-.2 0-.3-.1-.2-.2l1.1-6.5h-1.5c-.2 0-.3-.1-.2-.2v-.4c0-.2.1-.2.3-.2h2.3c.2 0 .3.1.2.2.1 0-1.2 7.1-1.2 7.1zm1.6-9.3c0 .2-.1.2-.3.2h-.5c-.2 0-.3-.1-.2-.2l.1-.3c0-.2.1-.2.3-.2h.5c.2 0 .3.1.2.2l-.1.3zm6.4 9.5h-4.5c-1.3 0-1.7-.2-1.5-1.5l.2-1.3c0-.2.1-.2.3-.2h.7c.2 0 .3.1.2.2L86 9.7c-.1.3 0 .6.6.6h4.3c.7 0 .8-.2.8-.7l.5-2.5c.1-.5 0-.7-.6-.7h-4.3c-1.3 0-1.7-.2-1.5-1.5l.5-2.5c.2-1 .8-1.3 1.9-1.3h4.5c1.3 0 1.7.2 1.5 1.5L94 3.9c0 .2-.1.2-.3.2h-.5c-.2 0-.2-.1-.2-.3l.2-1.3c.1-.5 0-.7-.6-.7h-4.3c-.7 0-.8.2-.8.7L86.9 5c-.1.5 0 .7.6.7H92c1.3 0 1.7.2 1.5 1.5l-.6 2.5c-.3 1.3-.8 1.5-2.1 1.5zm9.4 0h-4.6l-.5 2.5c0 .2-.1.2-.3.2h-.5c-.2 0-.3-.1-.2-.2L95.7 5c.2-1.3.8-1.5 2.1-1.5h3.9c1.3 0 1.7.2 1.5 1.5l-.9 4.7c-.3 1.3-1 1.5-2.1 1.5zm.9-1.5L102 5c0-.5 0-.7-.7-.7h-3.8c-.7 0-.8.2-.8.7l-1 5.3h4.5c.7 0 .9-.2.9-.6zm9.8 1.3c0 .2-.1.2-.3.2h-5c-1.3 0-1.7-.2-1.5-1.5L105 5c.2-1.3.8-1.5 2.1-1.5h3.9c1.3 0 1.7.2 1.5 1.5l-.3 1.7c-.2 1.3-.9 1.5-2.1 1.5h-4.6l-.2 1.5c-.2.6.1.6 1.4.6h4.1c.2 0 .3.1.2.2-.1 0-.1.5-.1.5zm0-4.3l.3-1.7c.1-.5 0-.7-.6-.7h-3.8c-.7 0-.8.2-.8.7l-.5 2.3h4.6c.6 0 .8-.2.8-.6zm7.9 4.3c.1.1 0 .2-.2.2h-.6c-.2 0-.3-.1-.5-.2l-1.6-3.1h-1.4L114 11c0 .2-.1.2-.3.2h-.5c-.2 0-.3-.1-.2-.2L114.9.4c0-.2.1-.2.3-.2h.5c.2 0 .3.1.2.2L114.7 7h1.4l2.9-3.2c.1-.1.3-.2.6-.2h.6c.2 0 .2.1.1.2L117 7.4l1.8 3.6zm6.3.2h-4.6c-.2 0-.3-.1-.2-.2v-.3c0-.2.1-.2.3-.2h4.5c.8-.1.9-.3.9-.7l.2-1.3c.1-.5 0-.7-.6-.7h-3.4c-1.3 0-1.7-.2-1.5-1.5L121 5c.2-1.3.8-1.5 2.1-1.5h4.5c.2 0 .3.1.2.2V4c0 .2-.1.2-.3.2H123c-.7 0-.8.2-.8.7l-.2 1.3c-.1.3 0 .7.6.7h3.4c1.3 0 1.7.2 1.5 1.5l-.2 1.3c-.4 1.3-1 1.5-2.2 1.5zm5.6-.2c0 .2-.1.2-.3.2h-.5c-.2 0-.3-.1-.2-.2l1.1-6.5h-1.5c-.2 0-.3-.1-.2-.2v-.4c0-.2.1-.2.3-.2h2.3c.2 0 .3.1.2.2l-1.2 7.1zm1.6-9.3c0 .2-.1.2-.3.2h-.5c-.2 0-.3-.1-.2-.2l.1-.3c0-.2.1-.2.3-.2h.5c.2 0 .3.1.2.2l-.1.3zm10.5 9.3c0 .2-.1.2-.3.2h-5c-1.3 0-1.7-.2-1.5-1.5l.9-4.7c.2-1.3.8-1.5 2.1-1.5h3.9c1.3 0 1.7.2 1.5 1.5l-.4 1.7c-.2 1.3-.8 1.5-2.1 1.5h-4.6l-.2 1.5c-.1.6.1.6 1.4.6h4.1c.2 0 .3.1.2.2v.5zm0-4.3l.3-1.7c.1-.5 0-.7-.6-.7h-3.8c-.7 0-.8.2-.8.7l-.5 2.3h4.6c.6 0 .8-.2.8-.6zm6.9 4.5h-4.6c-.2 0-.3-.1-.2-.2v-.3c0-.2.1-.2.3-.2h4.5c.7 0 .8-.2.8-.7l.2-1.3c.1-.5 0-.7-.6-.7h-3.4c-1.3 0-1.7-.2-1.5-1.5l.2-1.3c.2-1.3.8-1.5 2.1-1.5h4.5c.2 0 .3.1.2.2V4c0 .2-.1.2-.3.2h-4.5c-.7 0-.8.2-.8.7l-.2 1.3c-.1.3 0 .7.6.7h3.4c1.3 0 1.7.2 1.5 1.5l-.2 1.4c-.2 1.2-.8 1.4-2 1.4zm5.6-.2c0 .2-.1.2-.3.2h-.5c-.2 0-.3-.1-.2-.2l1.1-6.5h-1.5c-.2 0-.3-.1-.2-.2v-.4c0-.2.1-.2.3-.2h2.3c.2 0 .3.1.2.2l-1.2 7.1zm1.6-9.3c0 .2-.1.2-.3.2h-.5c-.2 0-.3-.1-.2-.2l.1-.3c0-.2.1-.2.3-.2h.5c.2 0 .3.1.2.2l-.1.3zm4.5 9.3c0 .2-.1.2-.3.2h-1.4c-1.3 0-1.7-.2-1.5-1.5l1-5.4h-1.1c-.2 0-.3-.1-.2-.2v-.3c0-.2.1-.2.3-.2h1.1l.5-2.6c0-.2.1-.2.3-.2h.5c.2 0 .3.1.2.2l-.5 2.6h2.1c.2 0 .3.1.2.2v.3c0 .2-.1.2-.3.2h-2.1l-1 5.4c-.1.5 0 .7.6.7h1.4c.2 0 .3.1.2.2v.4zm5.5 0c0 .2-.1.2-.3.2h-1.4c-1.3 0-1.7-.2-1.5-1.5l1-5.4h-1.1c-.2 0-.3-.1-.2-.2v-.3c0-.2.1-.2.3-.2h1.1l.5-2.6c0-.2.1-.2.3-.2h.5c.2 0 .3.1.2.2l-.5 2.6h2.1c.2 0 .3.1.2.2v.3c0 .2-.1.2-.3.2h-2.1l-1 5.4c-.1.5 0 .7.6.7h1.4c.2 0 .3.1.2.2v.4zm6.5.2h-3.9c-1.3 0-1.7-.2-1.5-1.5l.3-1.8c.2-1.3.8-1.5 2.1-1.5h4.6l.2-1.4c.1-.6-.1-.7-1.4-.7h-4.3c-.2 0-.3-.1-.2-.2v-.3c0-.2.1-.2.3-.2h5.1c1.3 0 1.7.2 1.5 1.5l-.9 4.7c0 1.2-.7 1.4-1.9 1.4zm1-1.5l.5-2.4h-4.6c-.7 0-.8.2-.8.7l-.3 1.8c-.1.5 0 .7.6.7h3.8c.5-.2.8-.4.8-.8zm-2-7.2c0 .2-.1.2-.3.2h-.5c-.2 0-.3-.1-.2-.2l.1-.3c0-.2.1-.2.3-.2h.5c.2 0 .3.1.2.2l-.1.3zm2.5 0c0 .2-.1.2-.3.2h-.5c-.2 0-.3-.1-.2-.2l.1-.3c0-.2.1-.2.3-.2h.5c.2 0 .3.1.2.2l-.1.3zm7.7 8.7h-3.9c-1.1 0-1.7-.2-1.5-1.5l.3-1.8c.2-1.3.8-1.5 2.1-1.5h4.6l.2-1.4c.1-.6-.1-.7-1.4-.7h-4.5c-.2 0-.3-.1-.2-.2v-.3c0-.2.1-.2.3-.2h5.1c1.3 0 1.7.2 1.5 1.5l-.9 4.7c0 1.2-.6 1.4-1.7 1.4zm.9-1.5l.5-2.4h-4.6c-.7 0-.8.2-.8.7l-.3 1.8c-.1.5 0 .7.6.7h3.8c.6-.2.7-.4.8-.8zm-1.9-7.2c0 .2-.1.2-.3.2h-.5c-.2 0-.3-.1-.2-.2l.1-.3c0-.2.1-.2.3-.2h.5c.2 0 .3.1.2.2l-.1.3zm2.4 0c0 .2-.1.2-.3.2h-.5c-.2 0-.3-.1-.2-.2l.1-.3c0-.2.1-.2.3-.2h.5c.2 0 .3.1.2.2l-.1.3zM50.2 58c0 .2-.1.3-.3.3h-6.6c-.2 0-.3-.1-.2-.3l1.7-11c0-.2.1-.3.3-.3h6.5c.2 0 .3.1.2.3l.1.5c-.1.2-.2.3-.5.3h-5.7l-.7 4.3h4.8c.2 0 .3.1.2.3v.4c0 .2-.1.3-.3.3h-4.8l-.7 4.2H50c.2 0 .3.1.2.3v.4zm8.9 0c0 .2-.1.3-.3.3h-.5c-.2 0-.3-.1-.2-.3l1-6.7c.1-.5 0-.7-.6-.7h-3.8c-.7 0-.9.2-.9.7l-1 6.7c0 .2-.1.3-.3.3h-.6c-.2 0-.3-.1-.2-.3l1-6.7c.2-1.4.8-1.7 2.1-1.7h3.9c1.3 0 1.7.2 1.5 1.7-.1 0-1.1 6.7-1.1 6.7zm6.7.4h-4.6c-.2 0-.3-.1-.2-.3v-.3c0-.2.1-.3.3-.3h4.5c.7 0 .8-.2.8-.7l.2-1.5c.1-.5 0-.7-.6-.7h-3.4c-1.3 0-1.7-.2-1.5-1.7l.3-1.5c.2-1.4.8-1.7 2.1-1.7h4.5c.2 0 .3.1.2.3v.3c0 .2-.1.3-.3.3h-4.5c-.7 0-.8.2-.8.7l-.2 1.5c-.1.5 0 .7.6.7h3.4c1.3 0 1.7.2 1.5 1.7l-.2 1.5c-.2 1.4-.8 1.7-2.1 1.7zm5.6-.4c0 .2-.1.3-.3.3h-.5c-.2 0-.3-.1-.2-.3l1.1-7.4H70c-.2 0-.3-.1-.2-.3V50c0-.2.1-.3.3-.3h2.3c.2 0 .2.1.2.3l-1.2 8zm1.7-10.5c0 .2-.1.3-.3.3h-.5c-.2 0-.3-.1-.2-.3l.1-.3c0-.2.1-.3.3-.3h.5c.2 0 .3.1.2.3l-.1.3zm5 6.9c0 .2-.1.3-.3.3h-3.7c-.2 0-.3-.1-.2-.3v-.5c0-.2.1-.3.3-.3h3.7c.2 0 .3.1.2.3v.5zm3 3.6c0 .2-.1.3-.3.3h-.5c-.2 0-.3-.1-.2-.3l1.1-7.4h-1.5c-.2 0-.3-.1-.2-.3V50c0-.2.1-.3.3-.3h2.3c.2 0 .3.1.2.3l-1.2 8zm1.7-10.5c0 .2-.1.3-.3.3H82c-.2 0-.3-.1-.2-.3l.1-.3c0-.2.1-.3.3-.3h.5c.2 0 .3.1.2.3l-.1.3zM86.4 58c0 .2-.1.3-.3.3h-1.4c-1.3 0-1.7-.2-1.5-1.7l1.7-10.7c0-.2.1-.3.3-.3h.5c.2 0 .3.1.2.3l-1.7 10.7c-.1.5 0 .7.6.7h1.4c.2 0 .3.1.2.3v.4zm4.9 0c0 .2-.1.3-.3.3h-1.4c-1.3 0-1.7-.2-1.5-1.7l1-6.1H88c-.2 0-.3-.1-.2-.3v-.3c0-.2.1-.3.3-.3h1.1l.5-3c0-.2.1-.3.3-.3h.5c.2 0 .3.1.2.3l-.5 3h2.1c.2 0 .3.1.2.3v.3c0 .2-.1.3-.3.3h-2.1l-1 6.1c-.1.5 0 .7.6.7h1.4c.2 0 .3.1.2.3v.4zm6.7.4h-3.9c-1.3 0-1.7-.2-1.5-1.7l.3-2.1c.2-1.4.8-1.7 2.1-1.7h4.6l.2-1.6c.1-.5 0-.7-.6-.7h-5.1c-.2 0-.3-.1-.2-.3V50c0-.2.1-.3.3-.3h5.1c1.3 0 1.7.2 1.5 1.7l-.9 5.4c-.2 1.3-.8 1.6-1.9 1.6zm.9-1.8l.5-2.7h-4.6c-.7 0-.8.2-.8.7l-.3 2.1c-.1.5 0 .7.6.7H98c.7-.1.8-.3.9-.8zM112 58c0 .2-.1.3-.3.3H105c-.2 0-.3-.1-.2-.3l.1-.6c0-.2.1-.3.3-.6l6.3-4.9c.7-.6.9-1.3.9-1.8l.2-1.7c.1-.5 0-.7-.6-.7h-3.9c-.7 0-.8.2-.8.7l-.3 1.5c0 .2-.1.3-.3.3h-.5c-.2 0-.3-.1-.2-.3l.2-1.5c.1-1.4.8-1.6 1.9-1.6h4c1.3 0 1.7.2 1.5 1.7l-.2 1.4c-.2 1.4-.3 1.9-1.5 2.9l-5.9 4.6h5.7c.2 0 .3.1.2.3l.1.3zm7.6.4h-4c-1.3 0-1.7-.2-1.5-1.7l.2-1.5c0-.2.1-.3.3-.3h.5c.2 0 .3.1.2.3l-.2 1.4c-.1.5 0 .7.6.7h3.9c.7 0 .8-.2.8-.7l.6-3.8c.1-.5 0-.7-.6-.7H115c-.2 0-.3-.1-.2-.3l.8-4.7c0-.2.1-.3.3-.3h6.4c.2 0 .3.1.2.3l-.1.3c0 .2-.1.3-.3.3h-5.6l-.6 3.3h4.8c1.3 0 1.7.2 1.5 1.7l-.6 3.9c-.2 1.5-.8 1.8-2 1.8zm4.3-.4c0 .2-.1.3-.3.3h-.5c-.2 0-.3-.1-.2-.3l.1-.5c0-.2.1-.3.3-.3h.5c.2 0 .3.1.2.3l-.1.5zm7.7.4h-4.3c-1.3 0-1.7-.2-1.5-1.7l.2-1.5c0-.2.1-.3.3-.3h.5c.2 0 .3.1.2.3l-.2 1.4c-.1.5 0 .7.6.7h4.2c.7 0 .8-.2.8-.7l.5-2.7c.1-.5 0-.7-.6-.7h-2.4c-.2 0-.3-.1-.2-.3l.1-.3c0-.2.1-.3.3-.3h2.4c.7 0 .8-.2.8-.7l.5-2.9c.1-.5 0-.7-.6-.7H129c-.7 0-.8.2-.8.7l-.2 1.4c0 .2-.1.3-.3.3h-.5c-.2 0-.3-.1-.2-.3l.2-1.5c.2-1.4.8-1.7 2.1-1.7h4.3c1.3 0 1.7.2 1.5 1.7l-.6 2.9c-.1.7-.3 1.1-.9 1.4.5.2.6.7.5 1.4l-.5 2.6c-.2 1.2-.8 1.5-2 1.5zm4.7-.4c0 .2-.1.3-.3.3h-.5c-.2 0-.3-.1-.2-.3l.1-.5c0-.2.1-.3.3-.3h.5c.2 0 .3.1.2.3l-.1.5zm8.8 0c0 .2-.1.3-.3.3H138c-.2 0-.3-.1-.2-.3l.1-.6c0-.2.1-.3.3-.6l6.3-4.9c.7-.6.9-1.3.9-1.8l.2-1.7c.1-.5 0-.7-.6-.7h-3.9c-.7 0-.8.2-.8.7l-.2 1.5c0 .2-.1.3-.3.3h-.5c-.2 0-.3-.1-.3-.3l.2-1.5c.2-1.4.8-1.7 2.1-1.7h4c1.3 0 1.7.2 1.5 1.7l-.2 1.4c-.2 1.4-.3 1.9-1.5 2.9l-5.9 4.6h5.7c.2 0 .3.1.2.3v.4zm8.2.4h-4.5c-1.3 0-1.7-.2-1.5-1.7l1.3-8.1c.2-1.4.8-1.7 2.1-1.7h4.5c1.3 0 1.7.2 1.5 1.7l-1.3 8.1c-.4 1.4-1 1.7-2.1 1.7zm.9-1.8l1.3-8.1c.1-.5 0-.7-.6-.7h-4.3c-.7 0-.8.2-.8.7l-1.3 8.1c-.1.5 0 .7.6.7h4.3c.6 0 .7-.2.8-.7zm10.2 1.4c0 .2-.1.3-.3.3h-6.7c-.2 0-.3-.1-.2-.3l.1-.6c0-.2.1-.3.3-.6l6.3-4.9c.7-.6.9-1.3.9-1.8l.2-1.7c.1-.5 0-.7-.6-.7h-3.9c-.7 0-.8.2-.8.7l-.2 1.4c0 .2-.1.3-.3.3h-.5c-.2 0-.3-.1-.2-.3l.2-1.5c.2-1.4.8-1.7 2.1-1.7h4c1.3 0 1.7.2 1.5 1.7l-.2 1.4c-.2 1.4-.3 1.9-1.5 2.9l-5.9 4.6h5.7c.2 0 .3.1.2.3l-.2.5zm8.1.4H168c-1.3 0-1.7-.2-1.5-1.7l1.3-8.1c.2-1.4.8-1.7 2.1-1.7h4.5c1.3 0 1.7.2 1.5 1.7l-1.3 8.1c-.3 1.4-.8 1.7-2.1 1.7zm.9-1.8l1.3-8.1c.1-.5 0-.7-.6-.7h-4.2c-.7 0-.8.2-.8.7l-1.3 8.1c-.1.5 0 .7.6.7h4.3c.6 0 .7-.2.7-.7z"/></svg>